<svg xmlns="http://www.w3.org/2000/svg" xmlns:xlink="http://www.w3.org/1999/xlink" xmlns:inkscape="http://www.inkscape.org/namespaces/inkscape" version="1.1" width="1800.6842" height="752.6312" viewBox="0 0 1800.6842 752.6312">
<defs>
<clipPath id="clip_0">
<path transform="matrix(1,0,0,-1,-89.56775,922.5235)" d="M89.56775 169.8923H1890.252V922.5235H89.56775Z" clip-rule="evenodd"/>
</clipPath>
<clipPath id="clip_1">
<path transform="matrix(1,0,0,-1,-89.56775,922.5235)" d="M0 0H1920V1080H0Z"/>
</clipPath>
<clipPath id="clip_2">
<path transform="matrix(1,0,0,-1,-89.56775,922.5235)" d="M952.6973 818.9927H1011.75167V878.6808H952.6973Z"/>
</clipPath>
<clipPath id="clip_3">
<path transform="matrix(1,0,0,-1,-89.56775,922.5235)" d="M0 0H1920V1080H0Z"/>
</clipPath>
<clipPath id="clip_4">
<path transform="matrix(1,0,0,-1,-89.56775,922.5235)" d="M829.864 426.8225H1026.4048V494.7441H829.864Z"/>
</clipPath>
<clipPath id="clip_5">
<path transform="matrix(1,0,0,-1,-89.56775,922.5235)" d="M0 0H1920V1080H0Z"/>
</clipPath>
<clipPath id="clip_6">
<path transform="matrix(1,0,0,-1,-89.56775,922.5235)" d="M1043.702 566.7286H1253.2007V640.7161H1043.702Z"/>
</clipPath>
<clipPath id="clip_7">
<path transform="matrix(1,0,0,-1,-89.56775,922.5235)" d="M0 0H1920V1080H0Z"/>
</clipPath>
<clipPath id="clip_8">
<path transform="matrix(1,0,0,-1,-89.56775,922.5235)" d="M942.4896 296.2662H1194.3641V355.38929H942.4896Z"/>
</clipPath>
<clipPath id="clip_9">
<path transform="matrix(1,0,0,-1,-89.56775,922.5235)" d="M1195.305 287.7188H1653.2953V355.38926H1195.305Z"/>
</clipPath>
<clipPath id="clip_10">
<path transform="matrix(1,0,0,-1,-89.56775,922.5235)" d="M0 0H1920V1080H0Z"/>
</clipPath>
<clipPath id="clip_11">
<path transform="matrix(1,0,0,-1,-89.56775,922.5235)" d="M957.3766 186.2903H1007.4083V230.48056H957.3766Z"/>
</clipPath>
<clipPath id="clip_12">
<path transform="matrix(1,0,0,-1,-89.56775,922.5235)" d="M0 0H1920V1080H0Z"/>
</clipPath>
<clipPath id="clip_13">
<path transform="matrix(1,0,0,-1,-89.56775,922.5235)" d="M241.0985 427.3666H290.08003V478.24085H241.0985Z"/>
</clipPath>
<clipPath id="clip_14">
<path transform="matrix(1,0,0,-1,-89.56775,922.5235)" d="M1675.888 424.7826H1709.4446V471.675H1675.888Z"/>
</clipPath>
<clipPath id="clip_15">
<path transform="matrix(1,0,0,-1,-89.56775,922.5235)" d="M551.1405 680.4103H603.3444V732.4158H551.1405Z"/>
</clipPath>
<clipPath id="clip_16">
<path transform="matrix(1,0,0,-1,-89.56775,922.5235)" d="M578.0592 689.5311H645.29049V756.1343H578.0592Z"/>
</clipPath>
<clipPath id="clip_17">
<path transform="matrix(1,0,0,-1,-89.56775,922.5235)" d="M613.3202 693.3063H701.29837V782.5H613.3202Z"/>
</clipPath>
<clipPath id="clip_18">
<path transform="matrix(1,0,0,-1,-89.56775,922.5235)" d="M659.5297 704.741H764.5297V809.741H659.5297Z"/>
</clipPath>
<clipPath id="clip_19">
<path transform="matrix(1,0,0,-1,-89.56775,922.5235)" d="M721.5262 708.2415H845.9934V833.0202H721.5262Z"/>
</clipPath>
<clipPath id="clip_20">
<path transform="matrix(1,0,0,-1,-89.56775,922.5235)" d="M754.4346 737.2228H812.2669V788.30288H754.4346Z"/>
</clipPath>
<clipPath id="clip_21">
<path transform="matrix(1,0,0,-1,-89.56775,922.5235)" d="M0 0H1920V1080H0Z"/>
</clipPath>
<clipPath id="clip_22">
<path transform="matrix(1,0,0,-1,-89.56775,922.5235)" d="M499.5202 560.1827H712.56289V626.11648H499.5202Z"/>
</clipPath>
</defs>
<g clip-path="url(#clip_0)">
<g clip-path="url(#clip_1)">
<path transform="matrix(1,0,0,-1,-89.56775,922.5235)" d="M0 0H1920V1080H0Z" fill="#ffffff"/>
<path transform="matrix(1,0,0,1,202.25327,123.39783)" stroke-width="6" stroke-linecap="butt" stroke-miterlimit="4" stroke-linejoin="miter" fill="none" stroke="#000000" d="M0 289.7104C198.5832 93.35381 460.3569-10.40565 728.8254 .8253108 960.1643 10.50301 1181.32 105.3954 1356.034 269.4545L1358.199 271.5343"/>
<path transform="matrix(1,0,0,-1,-89.56775,922.5235)" d="M1639.543 521.0165 1665.163 513.0423 1656.17 538.3232Z"/>
<path transform="matrix(.9603208,.2788977,-.2788977,.9603208,738.1315,189.84638)" stroke-width="6" stroke-linecap="round" stroke-dasharray=".006,18" stroke-dashoffset=".5" stroke-miterlimit="4" stroke-linejoin="miter" fill="none" stroke="#74ab4d" d="M0 0H822.0194 825.0194"/>
<path transform="matrix(1,0,0,-1,-89.56775,922.5235)" d="M1613.755 491.8939 1640.149 496.7242 1620.448 514.9416Z" fill="#74ab4d"/>
<path transform="matrix(1,0,0,1,199.99735,456.2844)" stroke-width="6" stroke-linecap="round" stroke-dasharray=".006,18" stroke-dashoffset=".5" stroke-miterlimit="4" stroke-linejoin="miter" fill="none" stroke="#000000" d="M0 0H1316.87 1319.87"/>
<path transform="matrix(1,0,0,-1,-89.56775,922.5235)" d="M1606.435 454.2391 1630.435 466.2391 1606.435 478.2391Z"/>
</g>
<g clip-path="url(#clip_2)">
<text xml:space="preserve" transform="matrix(1 0 -0 1 861.75259 143.8601)" font-size="72.47664" font-family="STIXGeneral" font-style="italic"><tspan y="-68.99746" x="0">&#x03c0;</tspan></text>
<text xml:space="preserve" transform="matrix(1 0 -0 1 861.75259 180.09839)" font-size="51.45841" font-family="STIXGeneral" font-style="italic"><tspan y="-87.11662" x="33.98174">&#x03b2;</tspan></text>
</g>
<g clip-path="url(#clip_3)">
<path transform="matrix(1,0,0,-1,-89.56775,922.5235)" d="M1737.3 497.664C1760.433 474.8971 1760.433 437.9847 1737.3 415.2178 1714.168 392.4509 1676.664 392.4509 1653.531 415.2178 1630.399 437.9847 1630.399 474.8971 1653.531 497.664 1676.664 520.4309 1714.168 520.4309 1737.3 497.664ZM1737.3 497.664" fill="#ffffff"/>
<path transform="matrix(1,0,0,1,1546.6143,407.78443)" stroke-width="4" stroke-linecap="butt" stroke-miterlimit="4" stroke-linejoin="miter" fill="none" stroke="#000000" d="M101.1181 17.07516C124.2503 39.84205 124.2503 76.75446 101.1181 99.52135 77.98592 122.2882 40.48128 122.2882 17.34912 99.52135-5.783041 76.75446-5.783041 39.84205 17.34912 17.07516 40.48128-5.691721 77.98592-5.691721 101.1181 17.07516ZM101.1181 17.07516"/>
<path transform="matrix(1,0,0,-1,-89.56775,922.5235)" d="M817.1056 420.7778H1041.5402V520.77786H817.1056Z" fill="#ffffff"/>
<path transform="matrix(1,0,0,1,727.53787,401.74574)" stroke-width="1" stroke-linecap="butt" stroke-miterlimit="4" stroke-linejoin="miter" fill="none" stroke="#ffffff" d="M0 0H224.4346V100H0Z"/>
</g>
<g clip-path="url(#clip_4)">
<text xml:space="preserve" transform="matrix(.9938613 0 -0 .9938613 739.21578 547.2084)" font-size="72.47664" font-family="STIXGeneral" font-style="italic"><tspan y="-70.66516" x="0">d</tspan></text>
<text xml:space="preserve" transform="matrix(.9938613 0 -0 .9938613 739.21578 547.2084)" font-size="72.47664" font-family="STIXGeneral"><tspan y="-70.66516" x="36.23832">(</tspan></text>
<text xml:space="preserve" transform="matrix(.9938613 0 -0 .9938613 739.21578 547.2084)" font-size="72.47664" font-family="STIXGeneral" font-style="italic"><tspan y="-70.66516" x="60.37304">s</tspan></text>
<text xml:space="preserve" transform="matrix(.9938613 0 -0 .9938613 739.21578 583.2243)" font-size="51.45841" font-family="STIXGeneral"><tspan y="-88.78432" x="86.01997">0</tspan></text>
<text xml:space="preserve" transform="matrix(.9938613 0 -0 .9938613 739.21578 547.2084)" font-size="72.47664" font-family="STIXGeneral"><tspan y="-70.66516" x="111.7492">,</tspan></text>
<text xml:space="preserve" transform="matrix(.9938613 0 -0 .9938613 739.21578 547.2084)" font-size="72.47664" font-family="STIXGeneral" font-style="italic"><tspan y="-70.66516" x="141.9478">g</tspan></text>
<text xml:space="preserve" transform="matrix(.9938613 0 -0 .9938613 739.21578 547.2084)" font-size="72.47664" font-family="STIXGeneral"><tspan y="-70.66516" x="178.1861">)</tspan></text>
</g>
<g clip-path="url(#clip_5)">
<path transform="matrix(1,0,0,-1,-89.56775,922.5235)" d="M1036.866 561.5521H1262.3005V664.7343H1036.866Z" fill="#ffffff"/>
</g>
<g clip-path="url(#clip_6)">
<text fill="#74ab4d" xml:space="preserve" transform="matrix(.9458768 0 -0 .9458768 953.1062 395.47029)" font-size="72.47664" font-family="STIXGeneral" font-style="italic"><tspan y="-70.66516" x="0">d</tspan></text>
<text fill="#74ab4d" xml:space="preserve" transform="matrix(.9458768 0 -0 .9458768 953.1062 395.47029)" font-size="72.47664" font-family="STIXGeneral"><tspan y="-70.66516" x="36.23832">(</tspan></text>
<text fill="#74ab4d" xml:space="preserve" transform="matrix(.9458768 0 -0 .9458768 953.1062 395.47029)" font-size="72.47664" font-family="STIXGeneral" font-style="italic"><tspan y="-70.66516" x="60.37304">s</tspan></text>
<text fill="#74ab4d" xml:space="preserve" transform="matrix(.9458768 0 -0 .9458768 953.1062 429.7472)" font-size="51.45841" font-family="STIXGeneral" font-style="italic"><tspan y="-88.78432" x="86.01997">w</tspan></text>
<text fill="#74ab4d" xml:space="preserve" transform="matrix(.9458768 0 -0 .9458768 953.1062 395.47029)" font-size="72.47664" font-family="STIXGeneral"><tspan y="-70.66516" x="120.3427">,</tspan></text>
<text fill="#74ab4d" xml:space="preserve" transform="matrix(.9458768 0 -0 .9458768 953.1062 395.47029)" font-size="72.47664" font-family="STIXGeneral" font-style="italic"><tspan y="-70.66516" x="150.5413">s</tspan></text>
<text fill="#74ab4d" xml:space="preserve" transform="matrix(.9458768 0 -0 .9458768 953.1062 429.7472)" font-size="51.45841" font-family="STIXGeneral" font-style="italic"><tspan y="-88.78432" x="176.1883">g</tspan></text>
<text fill="#74ab4d" xml:space="preserve" transform="matrix(.9458768 0 -0 .9458768 953.1062 395.47029)" font-size="72.47664" font-family="STIXGeneral"><tspan y="-70.66516" x="201.9175">)</tspan></text>
</g>
<g clip-path="url(#clip_7)">
<text xml:space="preserve" transform="matrix(1 0 -0 1 215.56534 609.95889)" font-size="60" font-family="TimesNewRomanPSMT"><tspan y="0" x="0 43.332006 73.332 99.96 123.312007 139.98001 186.64803 213.27603 229.94405 249.92404 266.59205 293.22007 304.90806 348.24006 368.22007 394.84809 424.84809 441.51609 458.18409 484.8121 511.44013 528.1081 558.1081 578.0881 604.71609 621.38406">Quasimetric Architecture: </tspan></text>
</g>
<g clip-path="url(#clip_8)">
<text xml:space="preserve" transform="matrix(1 0 -0 1 851.9813 665.8324)" font-size="62.70079" font-family="STIXGeneral" font-style="italic"><tspan y="-55.87351" x="0">d</tspan></text>
<text xml:space="preserve" transform="matrix(1 0 -0 1 851.9813 665.8324)" font-size="62.70079" font-family="STIXGeneral"><tspan y="-55.87351" x="31.35039">(</tspan></text>
<text xml:space="preserve" transform="matrix(1 0 -0 1 851.9813 665.8324)" font-size="62.70079" font-family="STIXGeneral" font-style="italic"><tspan y="-55.87351" x="52.22976">s</tspan></text>
<text xml:space="preserve" transform="matrix(1 0 -0 1 851.9813 697.1828)" font-size="44.51756" font-family="STIXGeneral"><tspan y="-71.5487" x="74.41736">0</tspan></text>
<text xml:space="preserve" transform="matrix(1 0 -0 1 851.9813 665.8324)" font-size="62.70079" font-family="STIXGeneral"><tspan y="-55.87351" x="96.67614">,</tspan></text>
<text xml:space="preserve" transform="matrix(1 0 -0 1 851.9813 665.8324)" font-size="62.70079" font-family="STIXGeneral" font-style="italic"><tspan y="-55.87351" x="122.8015">g</tspan></text>
<text xml:space="preserve" transform="matrix(1 0 -0 1 851.9813 665.8324)" font-size="62.70079" font-family="STIXGeneral"><tspan y="-55.87351" x="154.1519">)</tspan></text>
<text xml:space="preserve" transform="matrix(1 0 -0 1 851.9813 665.8324)" font-size="62.70079" font-family="STIXGeneral"><tspan y="-55.87351" x="192.4481">&#x2264;</tspan></text>
</g>
<g clip-path="url(#clip_9)">
<text fill="#74ab4d" xml:space="preserve" transform="matrix(1 0 -0 1 1104.7963 665.8324)" font-size="62.70079" font-family="STIXGeneral" font-style="italic"><tspan y="-55.87351" x="0">d</tspan></text>
<text fill="#74ab4d" xml:space="preserve" transform="matrix(1 0 -0 1 1104.7963 665.8324)" font-size="62.70079" font-family="STIXGeneral"><tspan y="-55.87351" x="31.35039">(</tspan></text>
<text fill="#74ab4d" xml:space="preserve" transform="matrix(1 0 -0 1 1104.7963 665.8324)" font-size="62.70079" font-family="STIXGeneral" font-style="italic"><tspan y="-55.87351" x="52.22976">s</tspan></text>
<text fill="#74ab4d" xml:space="preserve" transform="matrix(1 0 -0 1 1104.7963 697.1828)" font-size="44.51756" font-family="STIXGeneral"><tspan y="-71.5487" x="74.41736">0</tspan></text>
<text fill="#74ab4d" xml:space="preserve" transform="matrix(1 0 -0 1 1104.7963 665.8324)" font-size="62.70079" font-family="STIXGeneral"><tspan y="-55.87351" x="96.67614">,</tspan></text>
<text fill="#74ab4d" xml:space="preserve" transform="matrix(1 0 -0 1 1104.7963 665.8324)" font-size="62.70079" font-family="STIXGeneral" font-style="italic"><tspan y="-55.87351" x="122.8015">s</tspan></text>
<text fill="#74ab4d" xml:space="preserve" transform="matrix(1 0 -0 1 1104.7963 697.1828)" font-size="44.51756" font-family="STIXGeneral" font-style="italic"><tspan y="-71.5487" x="144.9891">w</tspan></text>
<text fill="#74ab4d" xml:space="preserve" transform="matrix(1 0 -0 1 1104.7963 665.8324)" font-size="62.70079" font-family="STIXGeneral"><tspan y="-55.87351" x="174.6823">)</tspan></text>
<text fill="#74ab4d" xml:space="preserve" transform="matrix(1 0 -0 1 1104.7963 665.8324)" font-size="62.70079" font-family="STIXGeneral"><tspan y="-55.87351" x="209.4952">+</tspan></text>
<text fill="#74ab4d" xml:space="preserve" transform="matrix(1 0 -0 1 1104.7963 665.8324)" font-size="62.70079" font-family="STIXGeneral" font-style="italic"><tspan y="-55.87351" x="266.3787">d</tspan></text>
<text fill="#74ab4d" xml:space="preserve" transform="matrix(1 0 -0 1 1104.7963 665.8324)" font-size="62.70079" font-family="STIXGeneral"><tspan y="-55.87351" x="297.7291">(</tspan></text>
<text fill="#74ab4d" xml:space="preserve" transform="matrix(1 0 -0 1 1104.7963 665.8324)" font-size="62.70079" font-family="STIXGeneral" font-style="italic"><tspan y="-55.87351" x="318.6085">s</tspan></text>
<text fill="#74ab4d" xml:space="preserve" transform="matrix(1 0 -0 1 1104.7963 697.1828)" font-size="44.51756" font-family="STIXGeneral" font-style="italic"><tspan y="-71.5487" x="340.7961">w</tspan></text>
<text fill="#74ab4d" xml:space="preserve" transform="matrix(1 0 -0 1 1104.7963 665.8324)" font-size="62.70079" font-family="STIXGeneral"><tspan y="-55.87351" x="370.4893">,</tspan></text>
<text fill="#74ab4d" xml:space="preserve" transform="matrix(1 0 -0 1 1104.7963 665.8324)" font-size="62.70079" font-family="STIXGeneral" font-style="italic"><tspan y="-55.87351" x="396.6146">s</tspan></text>
<text fill="#74ab4d" xml:space="preserve" transform="matrix(1 0 -0 1 1104.7963 697.1828)" font-size="44.51756" font-family="STIXGeneral" font-style="italic"><tspan y="-71.5487" x="418.8022">g</tspan></text>
<text fill="#74ab4d" xml:space="preserve" transform="matrix(1 0 -0 1 1104.7963 665.8324)" font-size="62.70079" font-family="STIXGeneral"><tspan y="-55.87351" x="441.061">)</tspan></text>
</g>
<g clip-path="url(#clip_10)">
<text xml:space="preserve" transform="matrix(1 0 -0 1 410.18455 719.7567)" font-size="60" font-family="TimesNewRomanPSMT"><tspan y="0" x="0 33.372007 60.000009 106.66801 136.668 153.33602 179.96402 194.96402 238.29602 264.92405 294.92405 324.92405 354.92405 371.59205 401.59205 418.26005 441.61204">Sample waypoints </tspan></text>
<text fill="#74ab4d" xml:space="preserve" transform="matrix(1 0 -0 1 410.18455 719.7567)" font-size="60" font-family="TimesNewRomanPSMT"><tspan y="0" x="508.5019"> </tspan></text>
<text xml:space="preserve" transform="matrix(1 0 -0 1 410.18455 719.7567)" font-size="60" font-family="TimesNewRomanPSMT"><tspan y="0" x="523.5019 543.4819 563.46188 593.46188 640.1298 655.1298 675.1098 705.1098 721.7778 751.7778 771.75778 798.38577 813.38577 836.7378 853.40579 880.03378 896.7017 923.3297">from future states</tspan></text>
</g>
<g clip-path="url(#clip_11)">
<text fill="#74ab4d" xml:space="preserve" transform="matrix(1 0 -0 1 866.80569 775.6302)" font-size="62.70079" font-family="STIXGeneral" font-style="italic"><tspan y="-55.87351" x="0">s</tspan></text>
<text fill="#74ab4d" xml:space="preserve" transform="matrix(1 0 -0 1 866.80569 806.9806)" font-size="44.51756" font-family="STIXGeneral" font-style="italic"><tspan y="-71.5487" x="22.1876">w</tspan></text>
</g>
<g clip-path="url(#clip_12)">
<path transform="matrix(1,0,0,-1,-89.56775,922.5235)" d="M308.0114 498.4355C331.1436 475.2425 331.1436 437.6393 308.0114 414.4463 284.8792 391.2533 247.3746 391.2533 224.2424 414.4463 201.1103 437.6393 201.1103 475.2425 224.2424 498.4355 247.3746 521.6285 284.8792 521.6285 308.0114 498.4355ZM308.0114 498.4355" fill="#ffffff"/>
<path transform="matrix(1,0,0,1,117.32555,406.69319)" stroke-width="4" stroke-linecap="butt" stroke-miterlimit="4" stroke-linejoin="miter" fill="none" stroke="#000000" d="M101.1181 17.39474C124.2503 40.58773 124.2503 78.191 101.1181 101.384 77.98592 124.577 40.48128 124.577 17.34912 101.384-5.783041 78.191-5.783041 40.58773 17.34912 17.39474 40.48128-5.798248 77.98592-5.798248 101.1181 17.39474ZM101.1181 17.39474"/>
</g>
<g clip-path="url(#clip_13)">
<text xml:space="preserve" transform="matrix(1 0 -0 1 150.37105 545.3147)" font-size="72.47664" font-family="STIXGeneral" font-style="italic"><tspan y="-68.99746" x="0">s</tspan></text>
<text xml:space="preserve" transform="matrix(1 0 -0 1 150.37105 581.553)" font-size="51.45841" font-family="STIXGeneral"><tspan y="-87.11662" x="25.64693">0</tspan></text>
</g>
<g clip-path="url(#clip_14)">
<text xml:space="preserve" transform="matrix(1 0 -0 1 1585.7402 551.8081)" font-size="72.47664" font-family="STIXGeneral" font-style="italic"><tspan y="-68.99746" x="0">g</tspan></text>
</g>
<g clip-path="url(#clip_15)">
<path transform="matrix(1,0,0,-1,-89.56775,922.5235)" d="M593.9315 723.032C603.1487 713.8536 603.1487 698.9725 593.9315 689.7941 584.7144 680.6157 569.7705 680.6157 560.5533 689.7941 551.3362 698.9725 551.3362 713.8536 560.5533 723.032 569.7705 732.2104 584.7144 732.2104 593.9315 723.032ZM593.9315 723.032" fill="#ffffff"/>
<path transform="matrix(1,0,0,1,464.07276,192.60773)" stroke-width="3" stroke-linecap="butt" stroke-miterlimit="4" stroke-linejoin="miter" fill="none" stroke="#74ab4d" stroke-opacity=".2345" d="M40.29105 6.883791C49.50818 16.06218 49.50818 30.94329 40.29105 40.12167 31.07391 49.30006 16.12998 49.30006 6.91285 40.12167-2.304284 30.94329-2.304284 16.06218 6.91285 6.883791 16.12998-2.294597 31.07391-2.294597 40.29105 6.883791ZM40.29105 6.883791"/>
</g>
<g clip-path="url(#clip_16)">
<path transform="matrix(1,0,0,-1,-89.56775,922.5235)" d="M633.6769 744.6127C645.8283 732.5839 645.8283 713.0815 633.6769 701.0527 621.5255 689.024 601.8242 689.024 589.6728 701.0527 577.5214 713.0815 577.5214 732.5839 589.6728 744.6127 601.8242 756.6415 621.5255 756.6415 633.6769 744.6127ZM633.6769 744.6127" fill="#ffffff"/>
<path transform="matrix(1,0,0,1,490.99147,168.88922)" stroke-width="3" stroke-linecap="butt" stroke-miterlimit="4" stroke-linejoin="miter" fill="none" stroke="#74ab4d" stroke-opacity=".3687" d="M53.11769 9.021568C65.2691 21.05033 65.2691 40.5528 53.11769 52.58155 40.96628 64.61031 21.26496 64.61031 9.113554 52.58155-3.037852 40.5528-3.037852 21.05033 9.113554 9.021568 21.26496-3.00719 40.96628-3.00719 53.11769 9.021568ZM53.11769 9.021568"/>
</g>
<g clip-path="url(#clip_17)">
<path transform="matrix(1,0,0,-1,-89.56775,922.5235)" d="M686.6465 767.6702C702.849 751.2303 702.849 724.576 686.6465 708.1362 670.444 691.6963 644.1746 691.6963 627.9721 708.1362 611.7696 724.576 611.7696 751.2303 627.9721 767.6702 644.1746 784.11 670.444 784.11 686.6465 767.6702ZM686.6465 767.6702" fill="#ffffff"/>
<path transform="matrix(1,0,0,1,526.25247,142.5235)" stroke-width="3" stroke-linecap="butt" stroke-miterlimit="4" stroke-linejoin="miter" fill="none" stroke="#74ab4d" stroke-opacity=".5934" d="M70.82626 12.32989C87.02874 28.76974 87.02874 55.42401 70.82626 71.86386 54.62377 88.30371 28.35435 88.30371 12.15186 71.86386-4.050622 55.42401-4.050622 28.76974 12.15186 12.32989 28.35435-4.109963 54.62377-4.109963 70.82626 12.32989ZM70.82626 12.32989"/>
</g>
<g clip-path="url(#clip_18)">
<path transform="matrix(1,0,0,-1,-89.56775,922.5235)" d="M747.385 792.5964C766.9112 773.0702 766.9112 741.4119 747.385 721.8857 727.8588 702.3595 696.2006 702.3595 676.6744 721.8857 657.1481 741.4119 657.1481 773.0702 676.6744 792.5964 696.2006 812.1226 727.8588 812.1226 747.385 792.5964ZM747.385 792.5964" fill="#ffffff"/>
<path transform="matrix(1,0,0,1,572.462,115.28247)" stroke-width="3" stroke-linecap="butt" stroke-miterlimit="4" stroke-linejoin="miter" fill="none" stroke="#74ab4d" stroke-opacity=".7978" d="M85.35534 14.64466C104.8816 34.17088 104.8816 65.82912 85.35534 85.35534 65.82912 104.8816 34.17088 104.8816 14.64466 85.35534-4.881554 65.82912-4.881554 34.17088 14.64466 14.64466 34.17088-4.881554 65.82912-4.881554 85.35534 14.64466ZM85.35534 14.64466"/>
</g>
<g clip-path="url(#clip_19)">
<path transform="matrix(1,0,0,-1,-89.56775,922.5235)" d="M825.6443 812.6255C848.7765 789.4325 848.7765 751.8293 825.6443 728.6363 802.5122 705.4433 765.0075 705.4433 741.8754 728.6363 718.7432 751.8293 718.7432 789.4325 741.8754 812.6255 765.0075 835.8185 802.5122 835.8185 825.6443 812.6255ZM825.6443 812.6255" fill="#ffffff"/>
<path transform="matrix(1,0,0,1,634.95846,92.503177)" stroke-width="4" stroke-linecap="butt" stroke-miterlimit="4" stroke-linejoin="miter" fill="none" stroke="#74ab4d" d="M101.1181 17.39474C124.2503 40.58773 124.2503 78.191 101.1181 101.384 77.98593 124.577 40.48128 124.577 17.34912 101.384-5.78304 78.191-5.78304 40.58773 17.34912 17.39474 40.48128-5.798248 77.98593-5.798248 101.1181 17.39474ZM101.1181 17.39474"/>
</g>
<g clip-path="url(#clip_20)">
<text fill="#74ab4d" xml:space="preserve" transform="matrix(1 0 -0 1 663.7073 235.2528)" font-size="72.47664" font-family="STIXGeneral" font-style="italic"><tspan y="-68.99746" x="0">s</tspan></text>
<text fill="#74ab4d" xml:space="preserve" transform="matrix(1 0 -0 1 663.7073 271.4911)" font-size="51.45841" font-family="STIXGeneral" font-style="italic"><tspan y="-87.11662" x="25.64693">w</tspan></text>
</g>
<g clip-path="url(#clip_21)">
<path transform="matrix(.881824,-.4715788,.4715788,.881824,225.47284,433.7124)" stroke-width="6" stroke-linecap="round" stroke-dasharray=".006,18" stroke-dashoffset=".5" stroke-miterlimit="4" stroke-linejoin="miter" fill="none" stroke="#74ab4d" d="M0 0H468.7803 471.7803"/>
<path transform="matrix(1,0,0,-1,-89.56775,922.5235)" d="M734.0813 699.2961 749.5861 721.1959 722.7634 720.4599Z" fill="#74ab4d"/>
<path transform="matrix(1,0,0,-1,-89.56775,922.5235)" d="M494.4745 654.4733H719.9091V551.2911H494.4745V654.4733ZM494.4745 654.4733" fill="#ffffff"/>
</g>
<g clip-path="url(#clip_22)">
<text fill="#74ab4d" xml:space="preserve" transform="matrix(.961878 0 -0 .961878 408.90675 411.9927)" font-size="72.47664" font-family="STIXGeneral" font-style="italic"><tspan y="-70.66516" x="0">d</tspan></text>
<text fill="#74ab4d" xml:space="preserve" transform="matrix(.961878 0 -0 .961878 408.90675 411.9927)" font-size="72.47664" font-family="STIXGeneral"><tspan y="-70.66516" x="36.23832">(</tspan></text>
<text fill="#74ab4d" xml:space="preserve" transform="matrix(.961878 0 -0 .961878 408.90675 411.9927)" font-size="72.47664" font-family="STIXGeneral" font-style="italic"><tspan y="-70.66516" x="60.37304">s</tspan></text>
<text fill="#74ab4d" xml:space="preserve" transform="matrix(.961878 0 -0 .961878 408.90675 446.8496)" font-size="51.45841" font-family="STIXGeneral"><tspan y="-88.78432" x="86.01997">0</tspan></text>
<text fill="#74ab4d" xml:space="preserve" transform="matrix(.961878 0 -0 .961878 408.90675 411.9927)" font-size="72.47664" font-family="STIXGeneral"><tspan y="-70.66516" x="111.7492">,</tspan></text>
<text fill="#74ab4d" xml:space="preserve" transform="matrix(.961878 0 -0 .961878 408.90675 411.9927)" font-size="72.47664" font-family="STIXGeneral" font-style="italic"><tspan y="-70.66516" x="141.9478">s</tspan></text>
<text fill="#74ab4d" xml:space="preserve" transform="matrix(.961878 0 -0 .961878 408.90675 446.8496)" font-size="51.45841" font-family="STIXGeneral" font-style="italic"><tspan y="-88.78432" x="167.5947">w</tspan></text>
<text fill="#74ab4d" xml:space="preserve" transform="matrix(.961878 0 -0 .961878 408.90675 411.9927)" font-size="72.47664" font-family="STIXGeneral"><tspan y="-70.66516" x="201.9175">)</tspan></text>
</g>
</g>
</svg>
