<svg xmlns="http://www.w3.org/2000/svg" xmlns:xlink="http://www.w3.org/1999/xlink" xmlns:inkscape="http://www.inkscape.org/namespaces/inkscape" version="1.1" width="409.53083" height="164.24259" viewBox="0 0 409.53083 164.24259">
<defs>
<clipPath id="clip_0">
<path transform="matrix(1,0,0,-1,-99.8846,510.3534)" d="M99.8846 346.1108H509.4154V510.3534H99.8846Z" clip-rule="evenodd"/>
</clipPath>
<clipPath id="clip_1">
<path transform="matrix(1,0,0,-1,-99.8846,510.3534)" d="M0 0H612V792H0Z"/>
</clipPath>
</defs>
<g clip-path="url(#clip_0)">
<g clip-path="url(#clip_1)">
<text fill="#b2b2b2" xml:space="preserve" transform="matrix(1 0 -0 1 -99.8846 510.3534)" font-size="7.9701" font-family="NimbusSanL" font-weight="bold"><tspan y="-704.803" x="73.131 77.56237 81.993747">270</tspan></text>
<text fill="#b2b2b2" xml:space="preserve" transform="matrix(1 0 -0 1 -99.8846 510.3534)" font-size="7.9701" font-family="NimbusSanL" font-weight="bold"><tspan y="-692.848" x="73.131 77.56237 81.993747">271</tspan></text>
<text fill="#b2b2b2" xml:space="preserve" transform="matrix(1 0 -0 1 -99.8846 510.3534)" font-size="7.9701" font-family="NimbusSanL" font-weight="bold"><tspan y="-680.892" x="73.131 77.56237 81.993747">272</tspan></text>
<text fill="#b2b2b2" xml:space="preserve" transform="matrix(1 0 -0 1 -99.8846 510.3534)" font-size="7.9701" font-family="NimbusSanL" font-weight="bold"><tspan y="-668.937" x="73.131 77.56237 81.993747">273</tspan></text>
<text fill="#b2b2b2" xml:space="preserve" transform="matrix(1 0 -0 1 -99.8846 510.3534)" font-size="7.9701" font-family="NimbusSanL" font-weight="bold"><tspan y="-656.982" x="73.131 77.56237 81.993747">274</tspan></text>
<text fill="#b2b2b2" xml:space="preserve" transform="matrix(1 0 -0 1 -99.8846 510.3534)" font-size="7.9701" font-family="NimbusSanL" font-weight="bold"><tspan y="-645.027" x="73.131 77.56237 81.993747">275</tspan></text>
<text fill="#b2b2b2" xml:space="preserve" transform="matrix(1 0 -0 1 -99.8846 510.3534)" font-size="7.9701" font-family="NimbusSanL" font-weight="bold"><tspan y="-633.072" x="73.131 77.56237 81.993747">276</tspan></text>
<text fill="#b2b2b2" xml:space="preserve" transform="matrix(1 0 -0 1 -99.8846 510.3534)" font-size="7.9701" font-family="NimbusSanL" font-weight="bold"><tspan y="-621.117" x="73.131 77.56237 81.993747">277</tspan></text>
<text fill="#b2b2b2" xml:space="preserve" transform="matrix(1 0 -0 1 -99.8846 510.3534)" font-size="7.9701" font-family="NimbusSanL" font-weight="bold"><tspan y="-609.161" x="73.131 77.56237 81.993747">278</tspan></text>
<text fill="#b2b2b2" xml:space="preserve" transform="matrix(1 0 -0 1 -99.8846 510.3534)" font-size="7.9701" font-family="NimbusSanL" font-weight="bold"><tspan y="-597.206" x="73.131 77.56237 81.993747">279</tspan></text>
<text fill="#b2b2b2" xml:space="preserve" transform="matrix(1 0 -0 1 -99.8846 510.3534)" font-size="7.9701" font-family="NimbusSanL" font-weight="bold"><tspan y="-585.251" x="73.131 77.56237 81.993747">280</tspan></text>
<text fill="#b2b2b2" xml:space="preserve" transform="matrix(1 0 -0 1 -99.8846 510.3534)" font-size="7.9701" font-family="NimbusSanL" font-weight="bold"><tspan y="-573.296" x="73.131 77.56237 81.993747">281</tspan></text>
<text fill="#b2b2b2" xml:space="preserve" transform="matrix(1 0 -0 1 -99.8846 510.3534)" font-size="7.9701" font-family="NimbusSanL" font-weight="bold"><tspan y="-561.341" x="73.131 77.56237 81.993747">282</tspan></text>
<text fill="#b2b2b2" xml:space="preserve" transform="matrix(1 0 -0 1 -99.8846 510.3534)" font-size="7.9701" font-family="NimbusSanL" font-weight="bold"><tspan y="-549.386" x="73.131 77.56237 81.993747">283</tspan></text>
<text fill="#b2b2b2" xml:space="preserve" transform="matrix(1 0 -0 1 -99.8846 510.3534)" font-size="7.9701" font-family="NimbusSanL" font-weight="bold"><tspan y="-537.43" x="73.131 77.56237 81.993747">284</tspan></text>
<text fill="#b2b2b2" xml:space="preserve" transform="matrix(1 0 -0 1 -99.8846 510.3534)" font-size="7.9701" font-family="NimbusSanL" font-weight="bold"><tspan y="-525.475" x="73.131 77.56237 81.993747">285</tspan></text>
<text fill="#b2b2b2" xml:space="preserve" transform="matrix(1 0 -0 1 -99.8846 510.3534)" font-size="7.9701" font-family="NimbusSanL" font-weight="bold"><tspan y="-513.52" x="73.131 77.56237 81.993747">286</tspan></text>
<text fill="#b2b2b2" xml:space="preserve" transform="matrix(1 0 -0 1 -99.8846 510.3534)" font-size="7.9701" font-family="NimbusSanL" font-weight="bold"><tspan y="-501.565" x="73.131 77.56237 81.993747">287</tspan></text>
<text fill="#b2b2b2" xml:space="preserve" transform="matrix(1 0 -0 1 -99.8846 510.3534)" font-size="7.9701" font-family="NimbusSanL" font-weight="bold"><tspan y="-489.61" x="73.131 77.56237 81.993747">288</tspan></text>
<text fill="#b2b2b2" xml:space="preserve" transform="matrix(1 0 -0 1 -99.8846 510.3534)" font-size="7.9701" font-family="NimbusSanL" font-weight="bold"><tspan y="-477.654" x="73.131 77.56237 81.993747">289</tspan></text>
<text fill="#b2b2b2" xml:space="preserve" transform="matrix(1 0 -0 1 -99.8846 510.3534)" font-size="7.9701" font-family="NimbusSanL" font-weight="bold"><tspan y="-465.699" x="73.131 77.56237 81.993747">290</tspan></text>
<text fill="#b2b2b2" xml:space="preserve" transform="matrix(1 0 -0 1 -99.8846 510.3534)" font-size="7.9701" font-family="NimbusSanL" font-weight="bold"><tspan y="-453.744" x="73.131 77.56237 81.993747">291</tspan></text>
<text fill="#b2b2b2" xml:space="preserve" transform="matrix(1 0 -0 1 -99.8846 510.3534)" font-size="7.9701" font-family="NimbusSanL" font-weight="bold"><tspan y="-441.789" x="73.131 77.56237 81.993747">292</tspan></text>
<text fill="#b2b2b2" xml:space="preserve" transform="matrix(1 0 -0 1 -99.8846 510.3534)" font-size="7.9701" font-family="NimbusSanL" font-weight="bold"><tspan y="-429.834" x="73.131 77.56237 81.993747">293</tspan></text>
<text fill="#b2b2b2" xml:space="preserve" transform="matrix(1 0 -0 1 -99.8846 510.3534)" font-size="7.9701" font-family="NimbusSanL" font-weight="bold"><tspan y="-417.879" x="73.131 77.56237 81.993747">294</tspan></text>
<text fill="#b2b2b2" xml:space="preserve" transform="matrix(1 0 -0 1 -99.8846 510.3534)" font-size="7.9701" font-family="NimbusSanL" font-weight="bold"><tspan y="-405.923" x="73.131 77.56237 81.993747">295</tspan></text>
<text fill="#b2b2b2" xml:space="preserve" transform="matrix(1 0 -0 1 -99.8846 510.3534)" font-size="7.9701" font-family="NimbusSanL" font-weight="bold"><tspan y="-393.968" x="73.131 77.56237 81.993747">296</tspan></text>
<text fill="#b2b2b2" xml:space="preserve" transform="matrix(1 0 -0 1 -99.8846 510.3534)" font-size="7.9701" font-family="NimbusSanL" font-weight="bold"><tspan y="-382.013" x="73.131 77.56237 81.993747">297</tspan></text>
<text fill="#b2b2b2" xml:space="preserve" transform="matrix(1 0 -0 1 -99.8846 510.3534)" font-size="7.9701" font-family="NimbusSanL" font-weight="bold"><tspan y="-370.058" x="73.131 77.56237 81.993747">298</tspan></text>
<text fill="#b2b2b2" xml:space="preserve" transform="matrix(1 0 -0 1 -99.8846 510.3534)" font-size="7.9701" font-family="NimbusSanL" font-weight="bold"><tspan y="-358.103" x="73.131 77.56237 81.993747">299</tspan></text>
<text fill="#b2b2b2" xml:space="preserve" transform="matrix(1 0 -0 1 -99.8846 510.3534)" font-size="7.9701" font-family="NimbusSanL" font-weight="bold"><tspan y="-346.148" x="73.131 77.56237 81.993747">300</tspan></text>
<text fill="#b2b2b2" xml:space="preserve" transform="matrix(1 0 -0 1 -99.8846 510.3534)" font-size="7.9701" font-family="NimbusSanL" font-weight="bold"><tspan y="-334.192" x="73.131 77.56237 81.993747">301</tspan></text>
<text fill="#b2b2b2" xml:space="preserve" transform="matrix(1 0 -0 1 -99.8846 510.3534)" font-size="7.9701" font-family="NimbusSanL" font-weight="bold"><tspan y="-322.237" x="73.131 77.56237 81.993747">302</tspan></text>
<text fill="#b2b2b2" xml:space="preserve" transform="matrix(1 0 -0 1 -99.8846 510.3534)" font-size="7.9701" font-family="NimbusSanL" font-weight="bold"><tspan y="-310.282" x="73.131 77.56237 81.993747">303</tspan></text>
<text fill="#b2b2b2" xml:space="preserve" transform="matrix(1 0 -0 1 -99.8846 510.3534)" font-size="7.9701" font-family="NimbusSanL" font-weight="bold"><tspan y="-298.327" x="73.131 77.56237 81.993747">304</tspan></text>
<text fill="#b2b2b2" xml:space="preserve" transform="matrix(1 0 -0 1 -99.8846 510.3534)" font-size="7.9701" font-family="NimbusSanL" font-weight="bold"><tspan y="-286.372" x="73.131 77.56237 81.993747">305</tspan></text>
<text fill="#b2b2b2" xml:space="preserve" transform="matrix(1 0 -0 1 -99.8846 510.3534)" font-size="7.9701" font-family="NimbusSanL" font-weight="bold"><tspan y="-274.417" x="73.131 77.56237 81.993747">306</tspan></text>
<text fill="#b2b2b2" xml:space="preserve" transform="matrix(1 0 -0 1 -99.8846 510.3534)" font-size="7.9701" font-family="NimbusSanL" font-weight="bold"><tspan y="-262.461" x="73.131 77.56237 81.993747">307</tspan></text>
<text fill="#b2b2b2" xml:space="preserve" transform="matrix(1 0 -0 1 -99.8846 510.3534)" font-size="7.9701" font-family="NimbusSanL" font-weight="bold"><tspan y="-250.506" x="73.131 77.56237 81.993747">308</tspan></text>
<text fill="#b2b2b2" xml:space="preserve" transform="matrix(1 0 -0 1 -99.8846 510.3534)" font-size="7.9701" font-family="NimbusSanL" font-weight="bold"><tspan y="-238.551" x="73.131 77.56237 81.993747">309</tspan></text>
<text fill="#b2b2b2" xml:space="preserve" transform="matrix(1 0 -0 1 -99.8846 510.3534)" font-size="7.9701" font-family="NimbusSanL" font-weight="bold"><tspan y="-226.596" x="73.131 77.56237 81.993747">310</tspan></text>
<text fill="#b2b2b2" xml:space="preserve" transform="matrix(1 0 -0 1 -99.8846 510.3534)" font-size="7.9701" font-family="NimbusSanL" font-weight="bold"><tspan y="-214.641" x="73.131 77.56237 81.993747">311</tspan></text>
<text fill="#b2b2b2" xml:space="preserve" transform="matrix(1 0 -0 1 -99.8846 510.3534)" font-size="7.9701" font-family="NimbusSanL" font-weight="bold"><tspan y="-202.685" x="73.131 77.56237 81.993747">312</tspan></text>
<text fill="#b2b2b2" xml:space="preserve" transform="matrix(1 0 -0 1 -99.8846 510.3534)" font-size="7.9701" font-family="NimbusSanL" font-weight="bold"><tspan y="-190.73" x="73.131 77.56237 81.993747">313</tspan></text>
<text fill="#b2b2b2" xml:space="preserve" transform="matrix(1 0 -0 1 -99.8846 510.3534)" font-size="7.9701" font-family="NimbusSanL" font-weight="bold"><tspan y="-178.775" x="73.131 77.56237 81.993747">314</tspan></text>
<text fill="#b2b2b2" xml:space="preserve" transform="matrix(1 0 -0 1 -99.8846 510.3534)" font-size="7.9701" font-family="NimbusSanL" font-weight="bold"><tspan y="-166.82" x="73.131 77.56237 81.993747">315</tspan></text>
<text fill="#b2b2b2" xml:space="preserve" transform="matrix(1 0 -0 1 -99.8846 510.3534)" font-size="7.9701" font-family="NimbusSanL" font-weight="bold"><tspan y="-154.865" x="73.131 77.56237 81.993747">316</tspan></text>
<text fill="#b2b2b2" xml:space="preserve" transform="matrix(1 0 -0 1 -99.8846 510.3534)" font-size="7.9701" font-family="NimbusSanL" font-weight="bold"><tspan y="-142.91" x="73.131 77.56237 81.993747">317</tspan></text>
<text fill="#b2b2b2" xml:space="preserve" transform="matrix(1 0 -0 1 -99.8846 510.3534)" font-size="7.9701" font-family="NimbusSanL" font-weight="bold"><tspan y="-130.954" x="73.131 77.56237 81.993747">318</tspan></text>
<text fill="#b2b2b2" xml:space="preserve" transform="matrix(1 0 -0 1 -99.8846 510.3534)" font-size="7.9701" font-family="NimbusSanL" font-weight="bold"><tspan y="-118.999" x="73.131 77.56237 81.993747">319</tspan></text>
<text fill="#b2b2b2" xml:space="preserve" transform="matrix(1 0 -0 1 -99.8846 510.3534)" font-size="7.9701" font-family="NimbusSanL" font-weight="bold"><tspan y="-107.044" x="73.131 77.56237 81.993747">320</tspan></text>
<text fill="#b2b2b2" xml:space="preserve" transform="matrix(1 0 -0 1 -99.8846 510.3534)" font-size="7.9701" font-family="NimbusSanL" font-weight="bold"><tspan y="-95.089" x="73.131 77.56237 81.993747">321</tspan></text>
<text fill="#b2b2b2" xml:space="preserve" transform="matrix(1 0 -0 1 -99.8846 510.3534)" font-size="7.9701" font-family="NimbusSanL" font-weight="bold"><tspan y="-83.134" x="73.131 77.56237 81.993747">322</tspan></text>
<text fill="#b2b2b2" xml:space="preserve" transform="matrix(1 0 -0 1 -99.8846 510.3534)" font-size="7.9701" font-family="NimbusSanL" font-weight="bold"><tspan y="-71.179" x="73.131 77.56237 81.993747">323</tspan></text>
<text xml:space="preserve" transform="matrix(1 0 -0 1 -99.8846 510.3534)" font-size="9.9626" font-family="NimbusRomNo9L"><tspan y="-756.631" x="108 115.193 120.1743 125.1556 129.579 135.38719 138.70475 142.87908 147.86037 150.62998 154.8043 164.48795 168.91135 175.27745 182.1915 186.6149 191.59619 196.57749 199.89504 204.31844 207.63599 212.05939 217.04068 221.46408 228.37813 233.35942 237.78282 242.76412 247.18752 252.99571 257.4191 262.67936 265.9969 272.64195 278.7291 287.8648 292.8461 297.8274 302.8087">UnderreviewasaconferencepaperatICLR2026</tspan></text>
<path transform="matrix(1,0,0,-1,8.115402,-242.49262)" stroke-width=".398" stroke-linecap="butt" stroke-miterlimit="10" stroke-linejoin="miter" fill="none" stroke="#000000" d="M0 0H396"/>
<text xml:space="preserve" transform="matrix(1.0099504 0 -0 .99014768 -99.8846 510.3534)" font-size="10.061731" font-family="NimbusRomNo9L"><tspan y="-707.14309" x="106.93594 114.200519 116.74614 121.63614 126.10355 133.68004 136.4772 141.50807 145.97548 151.31827 158.34136 162.25537 170.08339 174.5508 177.34796 180.14513 184.61254">Giventhatasmaller</tspan></text>
<text xml:space="preserve" transform="matrix(1 0 -0 1 -99.8846 510.3534)" font-size="9.9626" font-family="CMMI10" font-style="italic"><tspan y="-700.176" x="192.406">d</tspan></text>
<text xml:space="preserve" transform="matrix(1.0099504 0 -0 .99014768 -99.8846 510.3534)" font-size="10.061731" font-family="NimbusRomNo9L"><tspan y="-707.14309" x="198.19489 206.02292 210.49031 214.95772 218.87174 223.9026 227.25316 234.26619 238.7336 243.76445 247.115 250.46556 254.93299 258.84703 263.8779 268.90876 273.93965 281.52619 284.32334 291.89985 298.91288 303.94377 306.7409 311.7718 316.80265 321.27009 327.17634 336.9865 341.7759 346.24333 349.04048 354.07136 358.53877 363.61994 370.88453 377.89756 382.36497 386.8324 394.41896 402.24699 406.7144 411.74528 414.54243 422.37043 425.16758 429.635 436.64805 439.4452 444.47608 451.4891 461.30937 466.08869 470.5561 473.35325 478.38414 482.85154 489.32127 494.3521">measurecorrespondtoahigherQvalue,wecanmaximizetheQvaluesby</tspan></text>
<text xml:space="preserve" transform="matrix(1.0099504 0 -0 .99014768 -99.8846 510.3534)" font-size="10.061731" font-family="NimbusRomNo9L"><tspan y="-696.07498" x="106.93594 114.76398 117.56114 122.592 125.38917 133.2172 136.01436 140.48177 143.27893 148.30979 156.09757 158.89473 163.92562 171.13986 176.17075 178.96791 182.88191 185.67908 190.14649 195.17736 199.64476 206.86908 211.89994 215.25049 220.28136 225.31223 230.3431 234.8105 239.27791 247.05564 252.08649 259.87428 264.90516 269.936 276.0435 281.07438 286.10523 290.57267 294.48667 297.2838 305.11186 309.57926 312.3764 315.727 318.52415 325.7384 330.76927 335.2367 338.03385 345.19779 350.22865 353.57923 358.6101 365.04963 373.753 380.97734 383.77449 388.80534 393.8362 401.06056 403.8577 408.88856 416.10285 422.81404 432.2821 436.7495 441.7804 446.2478 449.34684 454.94117 459.40858 462.20573 466.67314 471.704">minimizingthedistanceproducedbyourquasimetricnetwork.WetunetheBCcoef&#xfb01;cient</tspan></text>
<text xml:space="preserve" transform="matrix(1 0 -0 1 -99.8846 510.3534)" font-size="9.9626" font-family="CMMI10" font-style="italic"><tspan y="-689.217" x="482.002">&#x21b5;</tspan></text>
<text xml:space="preserve" transform="matrix(1.0099504 0 -0 .99014768 -99.8846 510.3534)" font-size="10.061731" font-family="NimbusRomNo9L"><tspan y="-696.07498" x="486.35359 491.38447 495.85188">per</tspan></text>
<text xml:space="preserve" transform="matrix(1 0 -0 1 -99.8846 510.3534)" font-size="9.9626" font-family="NimbusRomNo9L"><tspan y="-678.258" x="108 112.42339 117.00619 121.98749 124.75709 128.07463 133.05593 138.03722 145.78812 150.21152 155.19281 157.96242 163.54148 172.14916 179.0632 184.0445 187.36205 192.1939 197.17519 199.9448 204.92609 211.84014 219.59104 224.57233 227.88988 234.80393 239.7354 244.71669 249.69799 254.12139 257.43894 262.42024 266.84364 270.16117 274.58457 282.33549 286.75889 289.52848 293.95188 299.76008 304.74137 309.16477 311.93437 316.35777 319.12736 321.89695 328.26307 331.03266">environment.Weprovidemorehyperparameterdetailsin</tspan></text>
<text fill="#626572" xml:space="preserve" transform="matrix(1 0 -0 1 -99.8846 510.3534)" font-size="9.9626" font-family="NimbusRomNo9L"><tspan y="-678.258" x="338.5047 344.0439 348.46733 352.89073 355.6603 358.4299 363.4112 370.88316">SectionB</tspan></text>
<text xml:space="preserve" transform="matrix(1 0 -0 1 -99.8846 510.3534)" font-size="9.9626" font-family="NimbusRomNo9L"><tspan y="-678.258" x="377.5282">.</tspan></text>
<text xml:space="preserve" transform="matrix(1 0 -0 1 -99.8846 510.3534)" font-size="9.9626" font-family="NimbusRomNo9L"><tspan y="-652.414" x="108.249 113.72843 116.71721 132.15924">4.4I</tspan></text>
<text xml:space="preserve" transform="matrix(1 0 -0 1 -99.8846 510.3534)" font-size="7.9701" font-family="NimbusRomNo9L"><tspan y="-652.414" x="135.9789 143.55846 148.47602 153.83989 159.1958 166.77536 172.13924 178.3878 183.01045 188.36637 193.73024 196.87844 203.11904">MPLEMENTATION</tspan></text>
<text xml:space="preserve" transform="matrix(1 0 -0 1 -99.8846 510.3534)" font-size="9.9626" font-family="NimbusRomNo9L"><tspan y="-652.414" x="211.8622">D</tspan></text>
<text xml:space="preserve" transform="matrix(1 0 -0 1 -99.8846 510.3534)" font-size="7.9701" font-family="NimbusRomNo9L"><tspan y="-652.414" x="219.5494 224.91327 229.53592 235.77652 238.92472 244.28859">ETAILS</tspan></text>
<text xml:space="preserve" transform="matrix(1 0 -0 1 -99.8846 510.3534)" font-size="9.9626" font-family="NimbusRomNo9L"><tspan y="-652.414" x="251.6987 262.4384">&#x0026;A</tspan></text>
<text xml:space="preserve" transform="matrix(1 0 -0 1 -99.8846 510.3534)" font-size="7.9701" font-family="NimbusRomNo9L"><tspan y="-652.414" x="270.1335 275.4894 281.73799 287.98655 293.7888 296.93699 302.30085 308.54145">LGORITHM</tspan></text>
<text xml:space="preserve" transform="matrix(1.0099504 0 -0 .99014768 -99.8846 510.3534)" font-size="10.061731" font-family="NimbusRomNo9L"><tspan y="-637.8403" x="106.58048 113.84505 116.64221 119.43938 124.470249 129.50112 134.532 139.56287">Although</tspan></text>
<text xml:space="preserve" transform="matrix(1 0 -0 1 -99.8846 510.3534)" font-size="9.9626" font-family="CMSY10" font-style="italic"><tspan y="-631.556" x="149.228">L</tspan></text>
<text xml:space="preserve" transform="matrix(1 0 -0 1 -99.8846 510.3534)" font-size="6.9738" font-family="CMSY7" font-style="italic"><tspan y="-630.061" x="156.1">T</tspan></text>
<text xml:space="preserve" transform="matrix(1 0 -0 1 -99.8846 510.3534)" font-size="4.9813" font-family="CMMI5" font-style="italic"><tspan y="-629.004" x="160.617">&#x03b2;</tspan></text>
<text xml:space="preserve" transform="matrix(1.0099504 0 -0 .99014768 -99.8846 510.3534)" font-size="10.061731" font-family="NimbusRomNo9L"><tspan y="-637.8403" x="167.33892 172.36978 176.83719 181.3046 186.33547 194.16349 198.63089">becomes</tspan></text>
<text xml:space="preserve" transform="matrix(1 0 -0 1 -99.8846 510.3534)" font-size="9.9626" font-family="CMSY10" font-style="italic"><tspan y="-631.556" x="207.755">L</tspan></text>
<text xml:space="preserve" transform="matrix(1 0 -0 1 -99.8846 510.3534)" font-size="6.9738" font-family="CMSY7" font-style="italic"><tspan y="-630.061" x="214.627">T</tspan></text>
<text xml:space="preserve" transform="matrix(1.0099504 0 -0 .99014768 -99.8846 510.3534)" font-size="10.061731" font-family="NimbusRomNo9L"><tspan y="-637.8403" x="222.45944 225.2566 233.44686 236.24402 241.27489 248.91175 253.37914 257.84657 261.7606 269.3874 276.65196 281.68284 286.15028 289.50083">inthecasewhere</tspan></text>
<text xml:space="preserve" transform="matrix(1 0 -0 1 -99.8846 510.3534)" font-size="9.9626" font-family="CMMI10" font-style="italic"><tspan y="-631.556" x="300.092">k</tspan></text>
<text xml:space="preserve" transform="matrix(1 0 -0 1 -99.8846 510.3534)" font-size="6.9738" font-family="CMSY7" font-style="italic"><tspan y="-635.171" x="305.592">0</tspan></text>
<text xml:space="preserve" transform="matrix(1 0 -0 1 -99.8846 510.3534)" font-size="9.9626" font-family="CMR10"><tspan y="-631.556" x="312.459 324.28263">=1</tspan></text>
<text xml:space="preserve" transform="matrix(1.0099504 0 -0 .99014768 -99.8846 510.3534)" font-size="10.061731" font-family="NimbusRomNo9L"><tspan y="-637.8403" x="326.01799 331.87394 339.1385 346.76533 351.23274 355.70014 363.90049 368.3679 373.39878 376.19593 381.22679 385.1408 391.09736 393.8945 398.92539 406.56227 410.47627 414.9437 419.4111 422.20826 429.83506 434.86595 441.37593 444.17308 449.20393 456.8408 459.63795 466.80189 474.99217 477.7893 482.82017 486.7342 490.64823 495.11564">,wecanadjustthescaleofthetwolosses</tspan></text>
<text xml:space="preserve" transform="matrix(1.0099504 0 -0 .99014768 -99.8846 510.3534)" font-size="10.061731" font-family="NimbusRomNo9L"><tspan y="-626.77218" x="106.93594 111.96681 119.875339 124.20188 129.23274 134.26361 137.06078 139.85793 144.32534 147.1225 149.91967 152.71683 160.62537 165.65622 170.6871 174.03766 181.30222 185.76963 188.56679 193.59764 198.62853 201.42569 204.22286 209.25373 217.17232 219.96949 225.00035 232.34543 237.3763 240.72686 245.7577 250.78859 255.256 260.28688 263.084 265.88117 268.6783 271.47547 279.39405 284.42494 290.65315 294.56718 299.0346 306.8626 311.8935 314.69065 317.4878 322.51866 330.4272 333.22434 338.2552 345.61033 350.6412 354.9577 359.98857 365.67344 369.58744 372.38459 376.85203 379.64918 386.99424 391.46165 398.2634 405.42735 409.89476 414.92564 419.95649 424.98738 427.78453 432.8154 438.49018 443.52107 446.3182 453.67335 461.0184 467.72959 472.197 475.54759 480.57844 485.6093 490.6402 493.43736 496.2345">byexplicitlyup-weightingtheprobabilityofsamplingthenextstateaswaypointviaaBernoulli</tspan></text>
<text xml:space="preserve" transform="matrix(1.0099504 0 -0 .99014768 -99.8846 510.3534)" font-size="10.061731" font-family="NimbusRomNo9L"><tspan y="-615.70419" x="106.93594 111.96681 114.76398 118.677989 121.47515 124.82571 127.62286 132.45252 137.48337 140.28054 143.0777 148.10857 153.13944 159.2771 162.62766 170.3148 175.34568 178.69623 183.16362 187.63103 190.42819 193.22536 197.69277 202.16017 207.3822 214.64678 221.7604 226.79129 231.25868 235.1727 237.96987 243.00072 248.0316 252.499 255.29616">distribution.Inpractice,wedesignate</tspan></text>
<text xml:space="preserve" transform="matrix(1 0 -0 1 -99.8846 510.3534)" font-size="9.9626" font-family="EUFM10"><tspan y="-609.638" x="265.033">s</tspan></text>
<text xml:space="preserve" transform="matrix(1 0 -0 1 -99.8846 510.3534)" font-size="6.9738" font-family="CMMI7" font-style="italic"><tspan y="-613.253" x="269.443">w</tspan></text>
<text xml:space="preserve" transform="matrix(1 0 -0 1 -99.8846 510.3534)" font-size="6.9738" font-family="CMMI7" font-style="italic"><tspan y="-607.175" x="269.443">t</tspan></text>
<text xml:space="preserve" transform="matrix(1 0 -0 1 -99.8846 510.3534)" font-size="9.9626" font-family="CMR10"><tspan y="-609.638" x="279.011">=</tspan></text>
<text xml:space="preserve" transform="matrix(1 0 -0 1 -99.8846 510.3534)" font-size="9.9626" font-family="CMMI10" font-style="italic"><tspan y="-609.638" x="289.8782">s</tspan></text>
<text xml:space="preserve" transform="matrix(1 0 -0 1 -99.8846 510.3534)" font-size="6.9738" font-family="CMSY7" font-style="italic"><tspan y="-613.253" x="294.549">0</tspan></text>
<text xml:space="preserve" transform="matrix(1 0 -0 1 -99.8846 510.3534)" font-size="6.9738" font-family="CMMI7" font-style="italic"><tspan y="-607.175" x="294.549">t</tspan></text>
<text xml:space="preserve" transform="matrix(1.0099504 0 -0 .99014768 -99.8846 510.3534)" font-size="10.061731" font-family="NimbusRomNo9L"><tspan y="-615.70419" x="297.77406 305.0386 307.83576 310.6329 318.32008 323.35096 326.70155 331.7324 336.76329 341.23069 346.26158 349.05873 351.85588 354.653 357.45018">withprobability</tspan></text>
<text xml:space="preserve" transform="matrix(1 0 -0 1 -99.8846 510.3534)" font-size="9.9626" font-family="CMMI10" font-style="italic"><tspan y="-609.638" x="368.766">p</tspan></text>
<text xml:space="preserve" transform="matrix(1.0099504 0 -0 .99014768 -99.8846 510.3534)" font-size="10.061731" font-family="NimbusRomNo9L"><tspan y="-615.70419" x="370.0964 375.30839 379.77583 384.80668 392.49388 399.75843 402.55558 405.35273 413.03993 418.07078 421.42137 426.4522 431.4831 435.95054 440.98139 443.77854 446.57569 449.37284 452.16999">,andwithprobability</tspan></text>
<text xml:space="preserve" transform="matrix(1 0 -0 1 -99.8846 510.3534)" font-size="9.9626" font-family="CMR10"><tspan y="-609.638" x="464.431">1</tspan></text>
<text xml:space="preserve" transform="matrix(1 0 -0 1 -99.8846 510.3534)" font-size="9.9626" font-family="CMSY10" font-style="italic"><tspan y="-609.638" x="471.7635">&#x2212;</tspan></text>
<text xml:space="preserve" transform="matrix(1 0 -0 1 -99.8846 510.3534)" font-size="9.9626" font-family="CMMI10" font-style="italic"><tspan y="-609.638" x="481.8735">p</tspan></text>
<text xml:space="preserve" transform="matrix(1.0099504 0 -0 .99014768 -99.8846 510.3534)" font-size="10.061731" font-family="NimbusRomNo9L"><tspan y="-615.70419" x="482.08607 487.29804 494.56263">,we</tspan></text>
<text xml:space="preserve" transform="matrix(.997998 0 -0 1.0020059 -99.8846 510.3534)" font-size="9.942656" font-family="NimbusRomNo9L"><tspan y="-597.4805" x="108.21665 113.18798 117.602519 121.47021 124.23426 129.20558 134.17693 138.59146 141.35553">designate</tspan></text>
<text xml:space="preserve" transform="matrix(1 0 -0 1 -99.8846 510.3534)" font-size="9.9626" font-family="EUFM10"><tspan y="-598.679" x="147.972">s</tspan></text>
<text xml:space="preserve" transform="matrix(1 0 -0 1 -99.8846 510.3534)" font-size="6.9738" font-family="CMMI7" font-style="italic"><tspan y="-602.294" x="152.382">w</tspan></text>
<text xml:space="preserve" transform="matrix(1 0 -0 1 -99.8846 510.3534)" font-size="6.9738" font-family="CMMI7" font-style="italic"><tspan y="-596.216" x="152.382">t</tspan></text>
<text xml:space="preserve" transform="matrix(.997998 0 -0 1.0020059 -99.8846 510.3534)" font-size="9.942656" font-family="NimbusRomNo9L"><tspan y="-597.4805" x="161.64862 166.06316 172.42647 175.19054 179.05823 184.65595 187.96685 195.43379 198.19786 203.16919 205.93326 212.29656 215.06063 220.03195 223.89966 226.66373 231.07826 236.04959 240.46413 244.87866 249.86988 252.63394 258.44044 265.61903 272.52919 277.5005 281.915 285.7827 288.54676 293.5181 298.4894 302.90394 305.668">asis.Inthisinstance,ifwedesignate</tspan></text>
<text xml:space="preserve" transform="matrix(1 0 -0 1 -99.8846 510.3534)" font-size="9.9626" font-family="CMMI10" font-style="italic"><tspan y="-598.679" x="311.958">p</tspan></text>
<text xml:space="preserve" transform="matrix(1 0 -0 1 -99.8846 510.3534)" font-size="9.9626" font-family="CMR10"><tspan y="-598.679" x="319.7398 330.26829">=1</tspan></text>
<text xml:space="preserve" transform="matrix(.997998 0 -0 1.0020059 -99.8846 510.3534)" font-size="9.942656" font-family="NimbusRomNo9L"><tspan y="-597.4805" x="335.91954">,</tspan></text>
<text xml:space="preserve" transform="matrix(1 0 -0 1 -99.8846 510.3534)" font-size="9.9626" font-family="CMSY10" font-style="italic"><tspan y="-598.679" x="340.223">L</tspan></text>
<text xml:space="preserve" transform="matrix(1 0 -0 1 -99.8846 510.3534)" font-size="6.9738" font-family="CMSY7" font-style="italic"><tspan y="-597.184" x="347.094">T</tspan></text>
<text xml:space="preserve" transform="matrix(1 0 -0 1 -99.8846 510.3534)" font-size="4.9813" font-family="CMMI5" font-style="italic"><tspan y="-596.127" x="351.612">&#x03b2;</tspan></text>
<text xml:space="preserve" transform="matrix(.997998 0 -0 1.0020059 -99.8846 510.3534)" font-size="9.942656" font-family="NimbusRomNo9L"><tspan y="-597.4805" x="360.01676 364.98808 369.40263 373.81715 378.78849 386.52388 390.93843">becomes</tspan></text>
<text xml:space="preserve" transform="matrix(1 0 -0 1 -99.8846 510.3534)" font-size="9.9626" font-family="CMSY10" font-style="italic"><tspan y="-598.679" x="396.51">L</tspan></text>
<text xml:space="preserve" transform="matrix(1 0 -0 1 -99.8846 510.3534)" font-size="6.9738" font-family="CMSY7" font-style="italic"><tspan y="-597.184" x="403.381">T</tspan></text>
<text xml:space="preserve" transform="matrix(.997998 0 -0 1.0020059 -99.8846 510.3534)" font-size="9.942656" font-family="NimbusRomNo9L"><tspan y="-597.4805" x="411.05494 416.6427 425.23313 432.14329 437.6714 442.64274 450.11958 455.09089 458.9586 461.72264 466.69395">.We&#xfb01;ndusing</tspan></text>
<text xml:space="preserve" transform="matrix(1 0 -0 1 -99.8846 510.3534)" font-size="9.9626" font-family="CMMI10" font-style="italic"><tspan y="-598.679" x="473.211">p</tspan></text>
<text xml:space="preserve" transform="matrix(1 0 -0 1 -99.8846 510.3534)" font-size="9.9626" font-family="CMR10"><tspan y="-598.679" x="480.9928 491.52128">=0</tspan></text>
<text xml:space="preserve" transform="matrix(1 0 -0 1 -99.8846 510.3534)" font-size="9.9626" font-family="CMMI10" font-style="italic"><tspan y="-598.679" x="496.5026">.</tspan></text>
<text xml:space="preserve" transform="matrix(1 0 -0 1 -99.8846 510.3534)" font-size="9.9626" font-family="CMR10"><tspan y="-598.679" x="499.2702">2</tspan></text>
<text xml:space="preserve" transform="matrix(1.0079682 0 -0 .9920948 -99.8846 510.3534)" font-size="10.041984" font-family="NimbusRomNo9L"><tspan y="-592.403" x="107.14624 111.60488 116.06353 119.40751 124.4285 128.33483 134.71147 139.17012 141.96179 147.21376 151.6724 156.30176 161.32276 164.11443 167.4584 172.4794 177.5004 185.31307 189.77172 194.79271 197.58438 203.96103 208.41968 211.21135 214.00302 218.77297 226.02329 232.39994 235.1916 240.2126 247.13153 252.15253 256.61119 259.40284 266.5527 271.5737 274.9177 282.40904 285.20069 292.69203 297.713 302.734 305.52568 313.00697 318.02796 321.37193 326.3929 331.4139 335.87257 340.8534 345.31205 348.1037 355.0226 357.81428 362.83528 367.2939 371.75257 377.01457 382.03556 384.8272 388.73356 391.5252 395.98387 401.00486 405.4635 409.92216 416.29884 419.5424 424.00105 427.90739 433.15934 437.61796 442.63896 450.13029 457.94297 462.40159 465.19328 470.21427 473.00593 477.46455 480.25624 487.74757 490.5392 495.5602">acrossallenvironmentsallowsthenetworktobothpropagatelocaldistancesfastandmaintainthe</tspan></text>
<text xml:space="preserve" transform="matrix(1 0 -0 1 -99.8846 510.3534)" font-size="9.9626" font-family="NimbusRomNo9L"><tspan y="-576.761" x="108 112.42339 117.40469 120.17429 122.94389 125.71349 128.4831 135.95503 138.72464 146.19658 151.17787 156.15917 158.92877 161.69838 169.44928 172.21889 176.64229 183.55634 186.32595 191.05817 198.15154 202.57494 205.89249 210.87378">abilitytooptimizetowards</tspan></text>
<text xml:space="preserve" transform="matrix(1 0 -0 1 -99.8846 510.3534)" font-size="9.9626" font-family="CMMI10" font-style="italic"><tspan y="-576.761" x="217.2399">Q</tspan></text>
<text xml:space="preserve" transform="matrix(1 0 -0 1 -99.8846 510.3534)" font-size="6.9738" font-family="CMSY7" font-style="italic"><tspan y="-580.376" x="225.115">&#x21e4;</tspan></text>
<text xml:space="preserve" transform="matrix(1 0 -0 1 -99.8846 510.3534)" font-size="9.9626" font-family="NimbusRomNo9L"><tspan y="-576.761" x="232.186 237.1673 241.04276 243.81237 248.79366 256.2656 261.2469 266.22819 270.65159 273.96913 277.84458 280.61418 285.03758 292.50953 296.93293 301.9142 306.8955 310.77098 313.54057 317.41603 320.1856 324.609 329.5903 333.86427 338.19798">usingone-stepconsistency.</tspan></text>
<text xml:space="preserve" transform="matrix(.98994949 0 -0 1.0101526 -99.8846 510.3534)" font-size="9.862471" font-family="NimbusRomNo9L"><tspan y="-554.1985" x="108.623729 117.12517 123.78234 128.16127 133.0925 138.02373 142.40268 145.14446 148.98096 153.3599 156.10167 163.31113 168.24237 172.6213 178.10485 183.03607 189.69326 194.62448 199.55571 205.11815 210.60167 215.53292 219.91185 224.93186 227.67363 232.05258 236.43152 239.71572 244.64694 247.38872 252.31995 259.5294 264.46064 269.39189 272.13365 276.5126 280.89155 283.6333 286.11863 290.90196 297.5591 300.30088">Weconciselyde&#xfb01;neour&#xfb01;nallearningobjectivein</tspan></text>
<text fill="#626572" xml:space="preserve" transform="matrix(.98994949 0 -0 1.0101526 -99.8846 510.3534)" font-size="9.862471" font-family="NimbusRomNo9L"><tspan y="-554.1985" x="307.51036 314.63105 317.3728 322.30406 327.2353 330.5195 333.26127 336.00303 340.93428 350.8855">Algorithm1</tspan></text>
<text xml:space="preserve" transform="matrix(.98994949 0 -0 1.0101526 -99.8846 510.3534)" font-size="9.862471" font-family="NimbusRomNo9L"><tspan y="-554.1985" x="355.81675 361.32 368.4407 373.37196 376.1137 378.85548 383.68809 390.34529 395.27653 398.5607 402.68324 407.61448 410.35624 415.28749 420.21873 426.33348 433.35557 438.2868 441.57099 446.50224 452.61698 455.35874 462.5682 467.49946 470.2412 474.62019 477.90437 482.2833 485.5675 489.94645 494.8777 497.61946 501.99839 506.37733">.Unlikepreviousworksinhierarchical</tspan></text>
<text xml:space="preserve" transform="matrix(1.0099504 0 -0 .99014768 -99.8846 510.3534)" font-size="10.061731" font-family="NimbusRomNo9L"><tspan y="-554.32748" x="106.93594 113.647129 122.34046">RL(</tspan></text>
<text fill="#626572" xml:space="preserve" transform="matrix(1.0099504 0 -0 .99014768 -99.8846 510.3534)" font-size="10.061731" font-family="NimbusRomNo9L"><tspan y="-554.32748" x="125.69103 132.95561 137.423 141.89041 146.92128 151.95217 162.3258 166.79322 172.14606 176.61347 179.41063">Nachumetal.</tspan></text>
<text xml:space="preserve" transform="matrix(1.0099504 0 -0 .99014768 -99.8846 510.3534)" font-size="10.061731" font-family="NimbusRomNo9L"><tspan y="-554.32748" x="181.92606">,</tspan></text>
<text fill="#626572" xml:space="preserve" transform="matrix(1.0099504 0 -0 .99014768 -99.8846 510.3534)" font-size="10.061731" font-family="NimbusRomNo9L"><tspan y="-554.32748" x="186.9871 192.01796 197.04885 202.07971">2018</tspan></text>
<text xml:space="preserve" transform="matrix(1.0099504 0 -0 .99014768 -99.8846 510.3534)" font-size="10.061731" font-family="NimbusRomNo9L"><tspan y="-554.32748" x="207.11057">;</tspan></text>
<text fill="#626572" xml:space="preserve" transform="matrix(1.0099504 0 -0 .99014768 -99.8846 510.3534)" font-size="10.061731" font-family="NimbusRomNo9L"><tspan y="-554.32748" x="212.45331 217.89672 222.3641 225.71468 233.30121 237.76862 243.1114 247.57881 250.37598">Parketal.</tspan></text>
<text xml:space="preserve" transform="matrix(1.0099504 0 -0 .99014768 -99.8846 510.3534)" font-size="10.061731" font-family="NimbusRomNo9L"><tspan y="-554.32748" x="252.89144">,</tspan></text>
<text fill="#626572" xml:space="preserve" transform="matrix(1.0099504 0 -0 .99014768 -99.8846 510.3534)" font-size="10.061731" font-family="NimbusRomNo9L"><tspan y="-554.32748" x="257.95249 262.98335 268.01423 273.0451 278.07597">2024b</tspan></text>
<text xml:space="preserve" transform="matrix(1.0099504 0 -0 .99014768 -99.8846 510.3534)" font-size="10.061731" font-family="NimbusRomNo9L"><tspan y="-554.32748" x="283.10688 286.45744 291.53865 298.8032 305.8263 309.17689 313.6443 318.67518 323.70603 328.7369 336.56495 339.3621 346.93858 350.8526 355.32 363.14805 368.17893 370.97608 377.9891 380.78627 385.81715 390.28456 394.19859 401.2116 408.37556 412.843 417.87385 422.90473 427.9356 430.73277 435.7636 438.56077 442.4748 447.56605 452.03349 457.06434 464.64085 471.9054 478.91847 481.7156 486.183 490.65043 494.001">),werandomlysamplethesewaypoints,andwelearn</tspan></text>
<text xml:space="preserve" transform="matrix(1.0099504 0 -0 .99014768 -99.8846 510.3534)" font-size="10.061731" font-family="NimbusRomNo9L"><tspan y="-543.2594" x="106.93594 114.29108 118.205089 121.00225 126.03311 131.06398 133.86115 141.22634 145.69374 149.0443 151.84146 154.63863 157.43579">asinglecritic</tspan></text>
<text xml:space="preserve" transform="matrix(1 0 -0 1 -99.8846 510.3534)" font-size="9.9626" font-family="CMSY10" font-style="italic"><tspan y="-537.907" x="166.435">Q</tspan></text>
<text xml:space="preserve" transform="matrix(1.0099504 0 -0 .99014768 -99.8846 510.3534)" font-size="10.061731" font-family="NimbusRomNo9L"><tspan y="-543.2594" x="175.74329 178.54045 183.57132 188.03871 193.73366 198.76453 203.7954 208.2628 211.61336 216.08077 218.86786 223.33527 230.14705 235.17794">thatoperateson</tspan></text>
<text xml:space="preserve" transform="matrix(1 0 -0 1 -99.8846 510.3534)" font-size="9.9626" font-family="CMSY10" font-style="italic"><tspan y="-537.907" x="245.52">S</tspan></text>
<text xml:space="preserve" transform="matrix(1.0099504 0 -0 .99014768 -99.8846 510.3534)" font-size="10.061731" font-family="NimbusRomNo9L"><tspan y="-543.2594" x="252.70746 257.17488 262.20576">and</tspan></text>
<text xml:space="preserve" transform="matrix(1 0 -0 1 -99.8846 510.3534)" font-size="9.9626" font-family="CMSY10" font-style="italic"><tspan y="-537.907" x="272.817">A</tspan></text>
<text xml:space="preserve" transform="matrix(1.0099504 0 -0 .99014768 -99.8846 510.3534)" font-size="10.061731" font-family="NimbusRomNo9L"><tspan y="-543.2594" x="280.89897 285.36637 290.39726 298.31584 305.681 309.59504 312.39219 317.42308 322.45396 325.2511 332.6062 337.6371 342.66798 347.13539 349.93254 353.2831 356.63368 361.10108 365.5685 370.03593 375.0668 377.86396 382.89485 390.82347 395.85435 400.88523 403.68238 406.47953 410.796">andasinglegoal-reachingpolicy</tspan></text>
<text xml:space="preserve" transform="matrix(1 0 -0 1 -99.8846 510.3534)" font-size="9.9626" font-family="CMMI10" font-style="italic"><tspan y="-537.907" x="422.888">&#x21e1;</tspan></text>
<text xml:space="preserve" transform="matrix(1 0 -0 1 -99.8846 510.3534)" font-size="6.9738" font-family="CMMI7" font-style="italic"><tspan y="-536.412" x="428.567">&#x00b5;</tspan></text>
<text xml:space="preserve" transform="matrix(1.0099504 0 -0 .99014768 -99.8846 510.3534)" font-size="10.061731" font-family="NimbusRomNo9L"><tspan y="-543.2594" x="429.63398 436.48603 443.75059 450.56239 457.9175 461.2681 465.7355 469.64955 474.6804 477.47755 480.2747 485.78855 490.8194 495.85029">.Asaresult,our</tspan></text>
<text xml:space="preserve" transform="matrix(.98994949 0 -0 1.0101526 -99.8846 510.3534)" font-size="9.862471" font-family="NimbusRomNo9L"><tspan y="-521.6519" x="109.09648 116.769489 121.14842 123.89019 128.82143 133.75266 141.16922 146.10045 151.03168 155.41063 161.72261 166.65384 171.58507 176.81218 181.19113 186.12236 191.05359 193.79537 198.1743 200.91608 208.33264 212.71158 217.49488 224.90158 229.83281 232.57459 236.95354 240.23773 244.61667 247.90087 252.27982 257.21104 259.95283 264.33177 268.7107 273.9378 278.31675 283.248 290.921 295.85224 300.78349 305.71473 310.09367 315.0249 317.76667 324.0885 328.46745 333.39869 340.81529 343.55705 349.869 353.7055 356.44728 364.12028 369.0515 371.79328 376.1722 381.94175 384.6835 392.1001 394.84187 402.51487 407.4461 410.18788 414.5668 422.2398 426.61875 431.55 436.7672 439.50898 444.44023 448.81916 456.23576 461.167 463.90876 468.84 473.21894 478.98847 483.9197 488.85096 492.13517 494.87693 499.25587 504.1871">methoddoesnotcontainanyhierarchicalcomponentsandissimplertoimplementthanotherhorizon</tspan></text>
<text xml:space="preserve" transform="matrix(1 0 -0 1 -99.8846 510.3534)" font-size="9.9626" font-family="NimbusRomNo9L"><tspan y="-515.989" x="108 111.31754 115.74094 120.72224 125.70354 130.12694 132.89655 135.66616 140.64745 148.11939 155.87029 160.29369 163.0633 168.04459 173.02588 178.00717 181.88263">reductionmethods.</tspan></text>
<path transform="matrix(1,0,0,-1,8.115402,8.55838)" stroke-width=".797" stroke-linecap="butt" stroke-miterlimit="10" stroke-linejoin="miter" fill="none" stroke="#000000" d="M0 0H396"/>
<text xml:space="preserve" transform="matrix(1 0 -0 1 -99.8846 510.3534)" font-size="9.9626" font-family="NimbusRomNo9L" font-weight="bold"><tspan y="-492.539" x="107.641 114.834 117.6036 122.5849 127.5662 131.9896 134.7592 138.07675 143.61595 154.40544 159.38674">Algorithm1:</tspan></text>
<text xml:space="preserve" transform="matrix(1 0 -0 1 -99.8846 510.3534)" font-size="9.9626" font-family="NimbusRomNo9L"><tspan y="-492.539" x="165.7927 174.64945 179.63074 182.40035 185.16996 187.93956 191.81502 194.58463 199.00803 206.47997 213.67296 218.65425 223.07765 226.95311 229.72272 237.47362 241.89702 244.66663 247.98418 250.75379 257.66786 264.3129 268.7363 271.5059 276.48719 279.80473 284.786 288.10356 292.52696 296.95036 304.70127 309.12467 314.10597 319.3662 325.45338 329.87678 334.30018 337.6177 342.599 345.3686 350.34989">MultistepQuasimetricReinforcementLearning</tspan></text>
<path transform="matrix(1,0,0,-1,8.115402,22.162384)" stroke-width=".398" stroke-linecap="butt" stroke-miterlimit="10" stroke-linejoin="miter" fill="none" stroke="#000000" d="M0 0H396"/>
<text xml:space="preserve" transform="matrix(1 0 -0 1 -99.8846 510.3534)" font-size="9.9626" font-family="NimbusRomNo9L" font-weight="bold"><tspan y="-477.142" x="108 115.193 119.616397 125.1556 130.69481 133.46442 137.7085 142.1319">Require:</tspan></text>
<text xml:space="preserve" transform="matrix(1 0 -0 1 -99.8846 510.3534)" font-size="9.9626" font-family="NimbusRomNo9L"><tspan y="-477.142" x="150.4307 157.62369 162.04709 164.8167 169.2401 173.11556 177.53896">Dataset</tspan></text>
<text xml:space="preserve" transform="matrix(1 0 -0 1 -99.8846 510.3534)" font-size="9.9626" font-family="CMSY10" font-style="italic"><tspan y="-477.142" x="182.7992">D</tspan></text>
<text xml:space="preserve" transform="matrix(1 0 -0 1 -99.8846 510.3534)" font-size="9.9626" font-family="NimbusRomNo9L"><tspan y="-477.142" x="190.7633 195.7446 202.38965 206.81305 209.58266 214.00606 221.478 225.35346 228.12306 232.54647">,Batchsize</tspan></text>
<text xml:space="preserve" transform="matrix(1 0 -0 1 -99.8846 510.3534)" font-size="9.9626" font-family="CMMI10" font-style="italic"><tspan y="-477.142" x="239.4605">B</tspan></text>
<text xml:space="preserve" transform="matrix(1 0 -0 1 -99.8846 510.3534)" font-size="9.9626" font-family="NimbusRomNo9L"><tspan y="-477.142" x="247.5153 252.4966 255.2662 258.58375 263.00715 265.77674 270.75804 273.52763 278.5089 285.98088 288.75047 291.52006 295.94346 299.261 303.6844 306.45399 309.22358 314.20487">,trainingiteration</tspan></text>
<text xml:space="preserve" transform="matrix(1 0 -0 1 -99.8846 510.3534)" font-size="9.9626" font-family="CMMI10" font-style="italic"><tspan y="-477.142" x="321.6768">T</tspan></text>
<text xml:space="preserve" transform="matrix(1 0 -0 1 -99.8846 510.3534)" font-size="9.9626" font-family="NimbusRomNo9L"><tspan y="-477.142" x="328.8838 333.8651 339.40434 342.72187 347.70317 352.68446 357.10786 362.08915 364.85874 367.62834 370.39793 373.1675">,Probability</tspan></text>
<text xml:space="preserve" transform="matrix(1 0 -0 1 -99.8846 510.3534)" font-size="9.9626" font-family="CMMI10" font-style="italic"><tspan y="-477.142" x="380.6395">p</tspan></text>
<text xml:space="preserve" transform="matrix(1 0 -0 1 -99.8846 510.3534)" font-size="8.9664" font-family="NimbusRomNo9L"><tspan y="-466.183" x="112.979 117.4622">1:</tspan></text>
<text xml:space="preserve" transform="matrix(1 0 -0 1 -99.8846 510.3534)" font-size="9.9626" font-family="NimbusRomNo9L"><tspan y="-466.183" x="124.9362 128.25376 133.23505 136.00466 138.77426 141.54387 145.96727 148.73688 151.50649 155.92989 162.84394 170.03693 175.01822 179.44162 183.31708 186.08669 193.83759 198.26099 201.0306 204.34815 207.11775 214.0318 219.01309 223.4365 226.2061 233.29947 238.28076 241.59832">InitializeQuasimetricnetwork</tspan></text>
<text fill="#ff7f00" xml:space="preserve" transform="matrix(1 0 -0 1 -99.8846 510.3534)" font-size="9.9626" font-family="CMSY10" font-style="italic"><tspan y="-466.183" x="249.0702">Q</tspan></text>
<text xml:space="preserve" transform="matrix(1 0 -0 1 -99.8846 510.3534)" font-size="9.9626" font-family="NimbusRomNo9L"><tspan y="-466.183" x="259.6973 266.8903 269.65989 272.42948 279.90144 284.88273 289.30613 292.62367 297.04707 304.79798 309.22138 311.99098 316.41438 319.7319 326.09803">withparameters(</tspan></text>
<text xml:space="preserve" transform="matrix(1 0 -0 1 -99.8846 510.3534)" font-size="9.9626" font-family="CMMI10" font-style="italic"><tspan y="-466.183" x="329.4155">'</tspan></text>
<text xml:space="preserve" transform="matrix(1 0 -0 1 -99.8846 510.3534)" font-size="9.9626" font-family="CMR10"><tspan y="-466.183" x="335.9331">(</tspan></text>
<text xml:space="preserve" transform="matrix(1 0 -0 1 -99.8846 510.3534)" font-size="9.9626" font-family="CMMI10" font-style="italic"><tspan y="-466.183" x="339.8075 344.47798 348.89936">s,a</tspan></text>
<text xml:space="preserve" transform="matrix(1 0 -0 1 -99.8846 510.3534)" font-size="9.9626" font-family="CMR10"><tspan y="-466.183" x="354.1656">)</tspan></text>
<text xml:space="preserve" transform="matrix(1 0 -0 1 -99.8846 510.3534)" font-size="9.9626" font-family="NimbusRomNo9L"><tspan y="-466.183" x="358.0401">,</tspan></text>
<text xml:space="preserve" transform="matrix(1 0 -0 1 -99.8846 510.3534)" font-size="9.9626" font-family="CMMI10" font-style="italic"><tspan y="-466.183" x="363.0214"> </tspan></text>
<text xml:space="preserve" transform="matrix(1 0 -0 1 -99.8846 510.3534)" font-size="9.9626" font-family="CMR10"><tspan y="-466.183" x="369.8697">(</tspan></text>
<text xml:space="preserve" transform="matrix(1 0 -0 1 -99.8846 510.3534)" font-size="9.9626" font-family="CMMI10" font-style="italic"><tspan y="-466.183" x="373.7441">s</tspan></text>
<text xml:space="preserve" transform="matrix(1 0 -0 1 -99.8846 510.3534)" font-size="9.9626" font-family="CMR10"><tspan y="-466.183" x="378.4146">)</tspan></text>
<text xml:space="preserve" transform="matrix(1 0 -0 1 -99.8846 510.3534)" font-size="9.9626" font-family="NimbusRomNo9L"><tspan y="-466.183" x="382.289 385.60655 390.58787 395.56916 400.55046 404.97386 407.74345 411.06098 414.3785 418.8019 423.2253 427.6487 432.63 435.3996 440.3809 447.85285 452.83415 457.81544 460.58503 463.3546 467.62858">),goal-reachingpolicy</tspan></text>
<text fill="#006eb8" xml:space="preserve" transform="matrix(1 0 -0 1 -99.8846 510.3534)" font-size="9.9626" font-family="CMMI10" font-style="italic"><tspan y="-466.183" x="475.1006">&#x21e1;</tspan></text>
<text fill="#006eb8" xml:space="preserve" transform="matrix(1 0 -0 1 -99.8846 510.3534)" font-size="6.9738" font-family="CMMI7" font-style="italic"><tspan y="-464.689" x="480.781">&#x00b5;</tspan></text>
<text xml:space="preserve" transform="matrix(1 0 -0 1 -99.8846 510.3534)" font-size="8.9664" font-family="NimbusRomNo9L"><tspan y="-455.224" x="112.979 117.4622">2:</tspan></text>
<path transform="matrix(1,0,0,-1,25.0514,55.128389)" stroke-width=".19925" stroke-linecap="butt" stroke-miterlimit="10" stroke-linejoin="miter" fill="none" stroke="#7f807f" d="M1.19548-3.58658V-86.31145H6.17686"/>
<text xml:space="preserve" transform="matrix(1 0 -0 1 -99.8846 510.3534)" font-size="9.9626" font-family="NimbusRomNo9L" font-weight="bold"><tspan y="-455.225" x="124.936 128.00447 132.98577">for</tspan></text>
<text xml:space="preserve" transform="matrix(1 0 -0 1 -99.8846 510.3534)" font-size="9.9626" font-family="CMMI10" font-style="italic"><tspan y="-455.225" x="139.8998">t</tspan></text>
<text xml:space="preserve" transform="matrix(1 0 -0 1 -99.8846 510.3534)" font-size="9.9626" font-family="CMR10"><tspan y="-455.225" x="146.2669 156.78542">=1</tspan></text>
<text xml:space="preserve" transform="matrix(1 0 -0 1 -99.8846 510.3534)" font-size="9.9626" font-family="CMMI10" font-style="italic"><tspan y="-455.225" x="161.7667 164.5343 167.30191 170.06952">...T</tspan></text>
<text xml:space="preserve" transform="matrix(1 0 -0 1 -99.8846 510.3534)" font-size="9.9626" font-family="NimbusRomNo9L" font-weight="bold"><tspan y="-455.225" x="179.7572 185.2964">do</tspan></text>
<text xml:space="preserve" transform="matrix(1 0 -0 1 -99.8846 510.3534)" font-size="8.9664" font-family="NimbusRomNo9L"><tspan y="-444.266" x="112.979 117.4622">3:</tspan></text>
<text xml:space="preserve" transform="matrix(1 0 -0 1 -99.8846 510.3534)" font-size="9.9626" font-family="NimbusRomNo9L"><tspan y="-444.266" x="139.88 145.4192 149.8426 157.5935 162.5748 165.3444">Sample</tspan></text>
<text xml:space="preserve" transform="matrix(1 0 -0 1 -99.8846 510.3534)" font-size="9.9626" font-family="CMSY10" font-style="italic"><tspan y="-444.266" x="172.2584">{</tspan></text>
<text xml:space="preserve" transform="matrix(1 0 -0 1 -99.8846 510.3534)" font-size="9.9626" font-family="CMMI10" font-style="italic"><tspan y="-444.266" x="177.2397">s</tspan></text>
<text xml:space="preserve" transform="matrix(1 0 -0 1 -99.8846 510.3534)" font-size="6.9738" font-family="CMMI7" font-style="italic"><tspan y="-442.771" x="181.91">i</tspan></text>
<text xml:space="preserve" transform="matrix(1 0 -0 1 -99.8846 510.3534)" font-size="9.9626" font-family="CMMI10" font-style="italic"><tspan y="-444.266" x="185.227 189.65837">,a</tspan></text>
<text xml:space="preserve" transform="matrix(1 0 -0 1 -99.8846 510.3534)" font-size="6.9738" font-family="CMMI7" font-style="italic"><tspan y="-442.771" x="194.921">i</tspan></text>
<text xml:space="preserve" transform="matrix(1 0 -0 1 -99.8846 510.3534)" font-size="9.9626" font-family="CMMI10" font-style="italic"><tspan y="-444.266" x="198.238 202.66938">,s</tspan></text>
<text xml:space="preserve" transform="matrix(1 0 -0 1 -99.8846 510.3534)" font-size="6.9738" font-family="CMSY7" font-style="italic"><tspan y="-447.881" x="207.335">0</tspan></text>
<text xml:space="preserve" transform="matrix(1 0 -0 1 -99.8846 510.3534)" font-size="6.9738" font-family="CMMI7" font-style="italic"><tspan y="-441.672" x="207.335">i</tspan></text>
<text xml:space="preserve" transform="matrix(1 0 -0 1 -99.8846 510.3534)" font-size="9.9626" font-family="CMMI10" font-style="italic"><tspan y="-444.266" x="210.652">,</tspan></text>
<text xml:space="preserve" transform="matrix(1 0 -0 1 -99.8846 510.3534)" font-size="9.9626" font-family="CMR10"><tspan y="-444.266" x="215.4819">&#x02dc;</tspan></text>
<text xml:space="preserve" transform="matrix(1 0 -0 1 -99.8846 510.3534)" font-size="9.9626" font-family="CMMI10" font-style="italic"><tspan y="-444.266" x="215.0834">s</tspan></text>
<text xml:space="preserve" transform="matrix(1 0 -0 1 -99.8846 510.3534)" font-size="6.9738" font-family="CMMI7" font-style="italic"><tspan y="-447.881" x="219.75">w</tspan></text>
<text xml:space="preserve" transform="matrix(1 0 -0 1 -99.8846 510.3534)" font-size="6.9738" font-family="CMMI7" font-style="italic"><tspan y="-441.672" x="219.75">i</tspan></text>
<text xml:space="preserve" transform="matrix(1 0 -0 1 -99.8846 510.3534)" font-size="9.9626" font-family="CMMI10" font-style="italic"><tspan y="-444.266" x="226.199 230.63037">,g</tspan></text>
<text xml:space="preserve" transform="matrix(1 0 -0 1 -99.8846 510.3534)" font-size="6.9738" font-family="CMMI7" font-style="italic"><tspan y="-442.771" x="235.379">i</tspan></text>
<text xml:space="preserve" transform="matrix(1 0 -0 1 -99.8846 510.3534)" font-size="9.9626" font-family="CMSY10" font-style="italic"><tspan y="-444.266" x="238.696">}</tspan></text>
<text xml:space="preserve" transform="matrix(1 0 -0 1 -99.8846 510.3534)" font-size="6.9738" font-family="CMMI7" font-style="italic"><tspan y="-447.881" x="243.677">B</tspan></text>
<text xml:space="preserve" transform="matrix(1 0 -0 1 -99.8846 510.3534)" font-size="6.9738" font-family="CMMI7" font-style="italic"><tspan y="-441.672" x="243.677">i</tspan></text>
<text xml:space="preserve" transform="matrix(1 0 -0 1 -99.8846 510.3534)" font-size="6.9738" font-family="CMR7"><tspan y="-441.672" x="246.4958 252.61183">=1</tspan></text>
<text xml:space="preserve" transform="matrix(1 0 -0 1 -99.8846 510.3534)" font-size="9.9626" font-family="CMSY10" font-style="italic"><tspan y="-444.266" x="259.848">&#x21e0;</tspan></text>
<text xml:space="preserve" transform="matrix(1 0 -0 1 -99.8846 510.3534)" font-size="9.9626" font-family="CMSY10" font-style="italic"><tspan y="-444.266" x="270.36653">D</tspan></text>
<text xml:space="preserve" transform="matrix(1 0 -0 1 -99.8846 510.3534)" font-size="9.9626" font-family="NimbusRomNo9L"><tspan y="-444.266" x="280.8213">(</tspan></text>
<text fill="#626572" xml:space="preserve" transform="matrix(1 0 -0 1 -99.8846 510.3534)" font-size="9.9626" font-family="NimbusRomNo9L"><tspan y="-444.266" x="284.1388 290.22596 295.20726 300.18858 303.5061 308.4874">Eq.(8)</tspan></text>
<text xml:space="preserve" transform="matrix(1 0 -0 1 -99.8846 510.3534)" font-size="9.9626" font-family="NimbusRomNo9L"><tspan y="-444.266" x="311.805">)</tspan></text>
<text xml:space="preserve" transform="matrix(1 0 -0 1 -99.8846 510.3534)" font-size="8.9664" font-family="NimbusRomNo9L"><tspan y="-433.307" x="112.979 117.4622">4:</tspan></text>
<text xml:space="preserve" transform="matrix(1 0 -0 1 -99.8846 510.3534)" font-size="9.9626" font-family="NimbusRomNo9L"><tspan y="-416.669" x="139.88 145.26976 150.25106 156.05925 160.48265 164.90605 169.32946 176.80139 181.2248 183.9944 188.4178 196.1687 200.5921 205.5734 210.83365 213.60326 221.0752 226.05649 230.47989 233.2495 237.6729 242.65419 247.63549 252.05889 257.0402 262.02149 267.00279 270.87825">Foreachelementinbatch,choose</tspan></text>
<text xml:space="preserve" transform="matrix(1 0 -0 1 -99.8846 510.3534)" font-size="9.9626" font-family="CMMI10" font-style="italic"><tspan y="-416.669" x="276.9654">s</tspan></text>
<text xml:space="preserve" transform="matrix(1 0 -0 1 -99.8846 510.3534)" font-size="6.9738" font-family="CMMI7" font-style="italic"><tspan y="-420.783" x="281.632">w</tspan></text>
<text xml:space="preserve" transform="matrix(1 0 -0 1 -99.8846 510.3534)" font-size="6.9738" font-family="CMMI7" font-style="italic"><tspan y="-414.206" x="281.632">i</tspan></text>
<text xml:space="preserve" transform="matrix(1 0 -0 1 -99.8846 510.3534)" font-size="9.9626" font-family="CMSY10" font-style="italic"><tspan y="-416.669" x="290.848">&#x21e0;</tspan></text>
<text xml:space="preserve" transform="matrix(1 0 -0 1 -99.8846 510.3534)" font-size="9.9626" font-family="CMEX10"><tspan y="-430.717" x="301.364">&#x21e2;</tspan></text>
<text xml:space="preserve" transform="matrix(1 0 -0 1 -99.8846 510.3534)" font-size="9.9626" font-family="CMMI10" font-style="italic"><tspan y="-423.105" x="308.836">s</tspan></text>
<text xml:space="preserve" transform="matrix(1 0 -0 1 -99.8846 510.3534)" font-size="6.9738" font-family="CMSY7" font-style="italic"><tspan y="-426.72" x="313.506">0</tspan></text>
<text xml:space="preserve" transform="matrix(1 0 -0 1 -99.8846 510.3534)" font-size="6.9738" font-family="CMMI7" font-style="italic"><tspan y="-420.512" x="313.506">i</tspan></text>
<text xml:space="preserve" transform="matrix(1 0 -0 1 -99.8846 510.3534)" font-size="9.9626" font-family="NimbusRomNo9L"><tspan y="-423.105" x="329.918 337.111 339.88059 342.65019 350.12214 355.10343 358.42097 363.40226 368.38356 372.80696 377.78825 380.55784 383.32743 386.09703 388.8666">withprobability</tspan></text>
<text xml:space="preserve" transform="matrix(1 0 -0 1 -99.8846 510.3534)" font-size="9.9626" font-family="CMMI10" font-style="italic"><tspan y="-423.105" x="396.3387 401.3509">p,</tspan></text>
<text xml:space="preserve" transform="matrix(1 0 -0 1 -99.8846 510.3534)" font-size="9.9626" font-family="CMR10"><tspan y="-409.954" x="309.234">&#x02dc;</tspan></text>
<text xml:space="preserve" transform="matrix(1 0 -0 1 -99.8846 510.3534)" font-size="9.9626" font-family="CMMI10" font-style="italic"><tspan y="-409.954" x="308.8355">s</tspan></text>
<text xml:space="preserve" transform="matrix(1 0 -0 1 -99.8846 510.3534)" font-size="6.9738" font-family="CMMI7" font-style="italic"><tspan y="-413.57" x="313.506">w</tspan></text>
<text xml:space="preserve" transform="matrix(1 0 -0 1 -99.8846 510.3534)" font-size="6.9738" font-family="CMMI7" font-style="italic"><tspan y="-407.361" x="313.506">i</tspan></text>
<text xml:space="preserve" transform="matrix(1 0 -0 1 -99.8846 510.3534)" font-size="9.9626" font-family="NimbusRomNo9L"><tspan y="-409.954" x="329.918 337.111 339.88059 342.65019 350.12214 355.10343 358.42097 363.40226 368.38356 372.80696 377.78825 380.55784 383.32743 386.09703 388.8666">withprobability</tspan></text>
<text xml:space="preserve" transform="matrix(1 0 -0 1 -99.8846 510.3534)" font-size="9.9626" font-family="CMR10"><tspan y="-409.954" x="396.3387">1</tspan></text>
<text xml:space="preserve" transform="matrix(1 0 -0 1 -99.8846 510.3534)" font-size="9.9626" font-family="CMSY10" font-style="italic"><tspan y="-409.954" x="403.5317">&#x2212;</tspan></text>
<text xml:space="preserve" transform="matrix(1 0 -0 1 -99.8846 510.3534)" font-size="9.9626" font-family="CMMI10" font-style="italic"><tspan y="-409.954" x="413.4923 418.5045">p.</tspan></text>
<text xml:space="preserve" transform="matrix(1 0 -0 1 -99.8846 510.3534)" font-size="8.9664" font-family="NimbusRomNo9L"><tspan y="-396.632" x="112.979 117.4622">5:</tspan></text>
<text xml:space="preserve" transform="matrix(1 0 -0 1 -99.8846 510.3534)" font-size="9.9626" font-family="NimbusRomNo9L"><tspan y="-396.632" x="139.88 147.073 152.05429 157.03559 161.45899 164.22859">Update</tspan></text>
<text fill="#ff7f00" xml:space="preserve" transform="matrix(1 0 -0 1 -99.8846 510.3534)" font-size="9.9626" font-family="CMSY10" font-style="italic"><tspan y="-396.632" x="171.1426">Q</tspan></text>
<text xml:space="preserve" transform="matrix(1 0 -0 1 -99.8846 510.3534)" font-size="9.9626" font-family="NimbusRomNo9L"><tspan y="-396.632" x="181.7697 188.96269 191.7323 194.5019 201.97385 209.72475 214.70604 217.47565 220.24526 223.01486 226.89032 229.65993 234.08333 241.55527 246.53656 250.95996 255.38336 260.36466 265.34596 272.8179 277.7992 285.27116 293.02207 295.79167 300.77296 303.54255 311.29347 314.06306 318.48646 321.25605 326.23735">withmultistepbackupbyminimizing</tspan></text>
<text xml:space="preserve" transform="matrix(1 0 -0 1 -99.8846 510.3534)" font-size="9.9626" font-family="CMSY10" font-style="italic"><tspan y="-396.632" x="333.7094">L</tspan></text>
<text xml:space="preserve" transform="matrix(1 0 -0 1 -99.8846 510.3534)" font-size="6.9738" font-family="CMSY7" font-style="italic"><tspan y="-395.138" x="340.58">T</tspan></text>
<text xml:space="preserve" transform="matrix(1 0 -0 1 -99.8846 510.3534)" font-size="4.9813" font-family="CMMI5" font-style="italic"><tspan y="-394.081" x="345.097">&#x03b2;</tspan></text>
<text xml:space="preserve" transform="matrix(1 0 -0 1 -99.8846 510.3534)" font-size="9.9626" font-family="CMR10"><tspan y="-396.632" x="350.288">(</tspan></text>
<text xml:space="preserve" transform="matrix(1 0 -0 1 -99.8846 510.3534)" font-size="9.9626" font-family="CMMI10" font-style="italic"><tspan y="-396.632" x="354.1625">'</tspan></text>
<text xml:space="preserve" transform="matrix(1 0 -0 1 -99.8846 510.3534)" font-size="9.9626" font-family="CMMI10" font-style="italic"><tspan y="-396.632" x="360.68006">,</tspan></text>
<text xml:space="preserve" transform="matrix(1 0 -0 1 -99.8846 510.3534)" font-size="9.9626" font-family="CMMI10" font-style="italic"><tspan y="-396.632" x="365.1154"> </tspan></text>
<text xml:space="preserve" transform="matrix(1 0 -0 1 -99.8846 510.3534)" font-size="9.9626" font-family="CMR10"><tspan y="-396.632" x="371.9497">;</tspan></text>
<text xml:space="preserve" transform="matrix(1 0 -0 1 -99.8846 510.3534)" font-size="9.9626" font-family="CMSY10" font-style="italic"><tspan y="-396.632" x="376.381">{</tspan></text>
<text xml:space="preserve" transform="matrix(1 0 -0 1 -99.8846 510.3534)" font-size="9.9626" font-family="CMMI10" font-style="italic"><tspan y="-396.632" x="381.3623">s</tspan></text>
<text xml:space="preserve" transform="matrix(1 0 -0 1 -99.8846 510.3534)" font-size="6.9738" font-family="CMMI7" font-style="italic"><tspan y="-395.138" x="386.034">i</tspan></text>
<text xml:space="preserve" transform="matrix(1 0 -0 1 -99.8846 510.3534)" font-size="9.9626" font-family="CMMI10" font-style="italic"><tspan y="-396.632" x="389.351 393.78239">,a</tspan></text>
<text xml:space="preserve" transform="matrix(1 0 -0 1 -99.8846 510.3534)" font-size="6.9738" font-family="CMMI7" font-style="italic"><tspan y="-395.138" x="399.044">i</tspan></text>
<text xml:space="preserve" transform="matrix(1 0 -0 1 -99.8846 510.3534)" font-size="9.9626" font-family="CMMI10" font-style="italic"><tspan y="-396.632" x="402.361 406.79237">,s</tspan></text>
<text xml:space="preserve" transform="matrix(1 0 -0 1 -99.8846 510.3534)" font-size="6.9738" font-family="CMMI7" font-style="italic"><tspan y="-400.247" x="411.459">w</tspan></text>
<text xml:space="preserve" transform="matrix(1 0 -0 1 -99.8846 510.3534)" font-size="6.9738" font-family="CMMI7" font-style="italic"><tspan y="-394.039" x="411.459">i</tspan></text>
<text xml:space="preserve" transform="matrix(1 0 -0 1 -99.8846 510.3534)" font-size="9.9626" font-family="CMSY10" font-style="italic"><tspan y="-396.632" x="417.908">}</tspan></text>
<text xml:space="preserve" transform="matrix(1 0 -0 1 -99.8846 510.3534)" font-size="6.9738" font-family="CMMI7" font-style="italic"><tspan y="-400.247" x="422.89">B</tspan></text>
<text xml:space="preserve" transform="matrix(1 0 -0 1 -99.8846 510.3534)" font-size="6.9738" font-family="CMMI7" font-style="italic"><tspan y="-394.039" x="422.89">i</tspan></text>
<text xml:space="preserve" transform="matrix(1 0 -0 1 -99.8846 510.3534)" font-size="6.9738" font-family="CMR7"><tspan y="-394.039" x="425.7088 431.82484">=1</tspan></text>
<text xml:space="preserve" transform="matrix(1 0 -0 1 -99.8846 510.3534)" font-size="9.9626" font-family="CMR10"><tspan y="-396.632" x="436.294">)</tspan></text>
<text xml:space="preserve" transform="matrix(1 0 -0 1 -99.8846 510.3534)" font-size="9.9626" font-family="NimbusRomNo9L"><tspan y="-396.632" x="442.6591">(</tspan></text>
<text fill="#626572" xml:space="preserve" transform="matrix(1 0 -0 1 -99.8846 510.3534)" font-size="9.9626" font-family="NimbusRomNo9L"><tspan y="-396.632" x="445.9767 452.06388 457.04518 462.0265 465.34403 470.32533">Eq.(9)</tspan></text>
<text xml:space="preserve" transform="matrix(1 0 -0 1 -99.8846 510.3534)" font-size="9.9626" font-family="NimbusRomNo9L"><tspan y="-396.632" x="473.6428">)</tspan></text>
<text xml:space="preserve" transform="matrix(1 0 -0 1 -99.8846 510.3534)" font-size="8.9664" font-family="NimbusRomNo9L"><tspan y="-383.735" x="112.979 117.4622">6:</tspan></text>
<text xml:space="preserve" transform="matrix(1 0 -0 1 -99.8846 510.3534)" font-size="9.9626" font-family="NimbusRomNo9L"><tspan y="-383.735" x="139.88 147.073 152.05429 157.03559 161.45899 164.22859">Update</tspan></text>
<text fill="#ff7f00" xml:space="preserve" transform="matrix(1 0 -0 1 -99.8846 510.3534)" font-size="9.9626" font-family="CMSY10" font-style="italic"><tspan y="-383.735" x="171.1426">Q</tspan></text>
<text xml:space="preserve" transform="matrix(1 0 -0 1 -99.8846 510.3534)" font-size="9.9626" font-family="NimbusRomNo9L"><tspan y="-383.735" x="181.7697 188.96269 191.7323 194.5019 201.97385 206.95514 211.93643 214.70604 217.47565 225.22655 229.64995 232.41956 235.18917 237.95877 245.43071 249.85411 254.8354 259.8167 263.69218 266.46177 269.7793 274.2027 276.9723 281.95359 284.72319 291.0893 296.0706 303.54255 311.29347 314.06306 319.04435 321.81394 329.56486 332.33445 336.75785 339.52745 344.50874">withoptimalityconstraintsbyminimizing</tspan></text>
<text xml:space="preserve" transform="matrix(1 0 -0 1 -99.8846 510.3534)" font-size="9.9626" font-family="CMSY10" font-style="italic"><tspan y="-383.735" x="351.9808">L</tspan></text>
<text xml:space="preserve" transform="matrix(1 0 -0 1 -99.8846 510.3534)" font-size="6.9738" font-family="CMSY7" font-style="italic"><tspan y="-382.24" x="358.851">I</tspan></text>
<text xml:space="preserve" transform="matrix(1 0 -0 1 -99.8846 510.3534)" font-size="9.9626" font-family="CMR10"><tspan y="-383.735" x="364.31">(</tspan></text>
<text xml:space="preserve" transform="matrix(1 0 -0 1 -99.8846 510.3534)" font-size="9.9626" font-family="CMMI10" font-style="italic"><tspan y="-383.735" x="368.1845">'</tspan></text>
<text xml:space="preserve" transform="matrix(1 0 -0 1 -99.8846 510.3534)" font-size="9.9626" font-family="CMMI10" font-style="italic"><tspan y="-383.735" x="374.70207">,</tspan></text>
<text xml:space="preserve" transform="matrix(1 0 -0 1 -99.8846 510.3534)" font-size="9.9626" font-family="CMMI10" font-style="italic"><tspan y="-383.735" x="379.1374"> </tspan></text>
<text xml:space="preserve" transform="matrix(1 0 -0 1 -99.8846 510.3534)" font-size="9.9626" font-family="CMR10"><tspan y="-383.735" x="385.9717">;</tspan></text>
<text xml:space="preserve" transform="matrix(1 0 -0 1 -99.8846 510.3534)" font-size="9.9626" font-family="CMSY10" font-style="italic"><tspan y="-383.735" x="390.403">{</tspan></text>
<text xml:space="preserve" transform="matrix(1 0 -0 1 -99.8846 510.3534)" font-size="9.9626" font-family="CMMI10" font-style="italic"><tspan y="-383.735" x="395.3843">s</tspan></text>
<text xml:space="preserve" transform="matrix(1 0 -0 1 -99.8846 510.3534)" font-size="6.9738" font-family="CMMI7" font-style="italic"><tspan y="-382.24" x="400.056">i</tspan></text>
<text xml:space="preserve" transform="matrix(1 0 -0 1 -99.8846 510.3534)" font-size="9.9626" font-family="CMMI10" font-style="italic"><tspan y="-383.735" x="403.373 407.80436">,a</tspan></text>
<text xml:space="preserve" transform="matrix(1 0 -0 1 -99.8846 510.3534)" font-size="6.9738" font-family="CMMI7" font-style="italic"><tspan y="-382.24" x="413.067">i</tspan></text>
<text xml:space="preserve" transform="matrix(1 0 -0 1 -99.8846 510.3534)" font-size="9.9626" font-family="CMSY10" font-style="italic"><tspan y="-383.735" x="416.383">}</tspan></text>
<text xml:space="preserve" transform="matrix(1 0 -0 1 -99.8846 510.3534)" font-size="6.9738" font-family="CMMI7" font-style="italic"><tspan y="-387.35" x="421.365">B</tspan></text>
<text xml:space="preserve" transform="matrix(1 0 -0 1 -99.8846 510.3534)" font-size="6.9738" font-family="CMMI7" font-style="italic"><tspan y="-381.142" x="421.365">i</tspan></text>
<text xml:space="preserve" transform="matrix(1 0 -0 1 -99.8846 510.3534)" font-size="6.9738" font-family="CMR7"><tspan y="-381.142" x="424.1838 430.29985">=1</tspan></text>
<text xml:space="preserve" transform="matrix(1 0 -0 1 -99.8846 510.3534)" font-size="9.9626" font-family="CMR10"><tspan y="-383.735" x="434.769">)</tspan></text>
<text xml:space="preserve" transform="matrix(1 0 -0 1 -99.8846 510.3534)" font-size="9.9626" font-family="NimbusRomNo9L"><tspan y="-383.735" x="441.1341">(</tspan></text>
<text fill="#626572" xml:space="preserve" transform="matrix(1 0 -0 1 -99.8846 510.3534)" font-size="9.9626" font-family="NimbusRomNo9L"><tspan y="-383.735" x="444.4517 450.53886 455.52015 460.50148 463.819 468.8003 473.7816">Eq.(15)</tspan></text>
<text xml:space="preserve" transform="matrix(1 0 -0 1 -99.8846 510.3534)" font-size="9.9626" font-family="NimbusRomNo9L"><tspan y="-383.735" x="477.0991">)</tspan></text>
<text xml:space="preserve" transform="matrix(1 0 -0 1 -99.8846 510.3534)" font-size="8.9664" font-family="NimbusRomNo9L"><tspan y="-371.765" x="112.979 117.4622">7:</tspan></text>
<text xml:space="preserve" transform="matrix(1 0 -0 1 -99.8846 510.3534)" font-size="9.9626" font-family="NimbusRomNo9L"><tspan y="-371.765" x="139.88 147.073 152.05429 157.03559 161.45899 164.22859 171.14264 176.12393 181.10523 183.87483 186.64444 190.9184">Updatepolicy</tspan></text>
<text fill="#006eb8" xml:space="preserve" transform="matrix(1 0 -0 1 -99.8846 510.3534)" font-size="9.9626" font-family="CMMI10" font-style="italic"><tspan y="-371.765" x="198.3903">&#x21e1;</tspan></text>
<text fill="#006eb8" xml:space="preserve" transform="matrix(1 0 -0 1 -99.8846 510.3534)" font-size="6.9738" font-family="CMMI7" font-style="italic"><tspan y="-370.27" x="204.07">&#x00b5;</tspan></text>
<text xml:space="preserve" transform="matrix(1 0 -0 1 -99.8846 510.3534)" font-size="9.9626" font-family="NimbusRomNo9L"><tspan y="-371.765" x="211.902 219.09499 221.8646 224.6342 232.10614 239.29914 246.49213 252.03133 259.22434 264.84324 271.48829 280.624 285.6053 293.07725 300.82817 303.59776 308.57905 311.34864 319.09956 321.86915 326.29255 329.06214 334.04344">withDDPG+BCbyminimizing</tspan></text>
<text xml:space="preserve" transform="matrix(1 0 -0 1 -99.8846 510.3534)" font-size="9.9626" font-family="CMSY10" font-style="italic"><tspan y="-371.765" x="341.5154">L</tspan></text>
<text xml:space="preserve" transform="matrix(1 0 -0 1 -99.8846 510.3534)" font-size="6.9738" font-family="CMMI7" font-style="italic"><tspan y="-370.27" x="348.387">&#x00b5;</tspan></text>
<text xml:space="preserve" transform="matrix(1 0 -0 1 -99.8846 510.3534)" font-size="9.9626" font-family="CMR10"><tspan y="-371.765" x="353.729">(</tspan></text>
<text xml:space="preserve" transform="matrix(1 0 -0 1 -99.8846 510.3534)" font-size="9.9626" font-family="CMMI10" font-style="italic"><tspan y="-371.765" x="357.6035">&#x21e1;</tspan></text>
<text xml:space="preserve" transform="matrix(1 0 -0 1 -99.8846 510.3534)" font-size="6.9738" font-family="CMMI7" font-style="italic"><tspan y="-370.27" x="363.282">&#x00b5;</tspan></text>
<text xml:space="preserve" transform="matrix(1 0 -0 1 -99.8846 510.3534)" font-size="9.9626" font-family="CMR10"><tspan y="-371.765" x="368.624">;</tspan></text>
<text xml:space="preserve" transform="matrix(1 0 -0 1 -99.8846 510.3534)" font-size="9.9626" font-family="CMSY10" font-style="italic"><tspan y="-371.765" x="373.0554">{</tspan></text>
<text xml:space="preserve" transform="matrix(1 0 -0 1 -99.8846 510.3534)" font-size="9.9626" font-family="CMMI10" font-style="italic"><tspan y="-371.765" x="378.0367">s</tspan></text>
<text xml:space="preserve" transform="matrix(1 0 -0 1 -99.8846 510.3534)" font-size="6.9738" font-family="CMMI7" font-style="italic"><tspan y="-370.27" x="382.704">i</tspan></text>
<text xml:space="preserve" transform="matrix(1 0 -0 1 -99.8846 510.3534)" font-size="9.9626" font-family="CMMI10" font-style="italic"><tspan y="-371.765" x="386.02 390.45137">,a</tspan></text>
<text xml:space="preserve" transform="matrix(1 0 -0 1 -99.8846 510.3534)" font-size="6.9738" font-family="CMMI7" font-style="italic"><tspan y="-370.27" x="395.714">i</tspan></text>
<text xml:space="preserve" transform="matrix(1 0 -0 1 -99.8846 510.3534)" font-size="9.9626" font-family="CMMI10" font-style="italic"><tspan y="-371.765" x="399.031 403.46238">,g</tspan></text>
<text xml:space="preserve" transform="matrix(1 0 -0 1 -99.8846 510.3534)" font-size="6.9738" font-family="CMMI7" font-style="italic"><tspan y="-370.27" x="408.211">i</tspan></text>
<text xml:space="preserve" transform="matrix(1 0 -0 1 -99.8846 510.3534)" font-size="9.9626" font-family="CMSY10" font-style="italic"><tspan y="-371.765" x="411.528">}</tspan></text>
<text xml:space="preserve" transform="matrix(1 0 -0 1 -99.8846 510.3534)" font-size="6.9738" font-family="CMMI7" font-style="italic"><tspan y="-375.38" x="416.509">B</tspan></text>
<text xml:space="preserve" transform="matrix(1 0 -0 1 -99.8846 510.3534)" font-size="6.9738" font-family="CMMI7" font-style="italic"><tspan y="-369.171" x="416.509">i</tspan></text>
<text xml:space="preserve" transform="matrix(1 0 -0 1 -99.8846 510.3534)" font-size="6.9738" font-family="CMR7"><tspan y="-369.171" x="419.3278 425.44383">=1</tspan></text>
<text xml:space="preserve" transform="matrix(1 0 -0 1 -99.8846 510.3534)" font-size="9.9626" font-family="CMR10"><tspan y="-371.765" x="429.913">)</tspan></text>
<text xml:space="preserve" transform="matrix(1 0 -0 1 -99.8846 510.3534)" font-size="9.9626" font-family="NimbusRomNo9L"><tspan y="-371.765" x="436.2781">(</tspan></text>
<text fill="#626572" xml:space="preserve" transform="matrix(1 0 -0 1 -99.8846 510.3534)" font-size="9.9626" font-family="NimbusRomNo9L"><tspan y="-371.765" x="439.5957 445.68287 450.66416 455.64549 458.963 463.9443 468.9256">Eq.(16)</tspan></text>
<text xml:space="preserve" transform="matrix(1 0 -0 1 -99.8846 510.3534)" font-size="9.9626" font-family="NimbusRomNo9L"><tspan y="-371.765" x="472.2431">)</tspan></text>
<text xml:space="preserve" transform="matrix(1 0 -0 1 -99.8846 510.3534)" font-size="8.9664" font-family="NimbusRomNo9L"><tspan y="-360.806" x="112.979 117.4622">8:</tspan></text>
<text xml:space="preserve" transform="matrix(1 0 -0 1 -99.8846 510.3534)" font-size="9.9626" font-family="NimbusRomNo9L" font-weight="bold"><tspan y="-360.806" x="124.9362 129.18029 133.60369 136.92124 142.46044 146.73439">return</tspan></text>
<text fill="#006eb8" xml:space="preserve" transform="matrix(1 0 -0 1 -99.8846 510.3534)" font-size="9.9626" font-family="CMMI10" font-style="italic"><tspan y="-360.806" x="154.7642">&#x21e1;</tspan></text>
<text fill="#006eb8" xml:space="preserve" transform="matrix(1 0 -0 1 -99.8846 510.3534)" font-size="6.9738" font-family="CMMI7" font-style="italic"><tspan y="-359.311" x="160.443">&#x00b5;</tspan></text>
<path transform="matrix(1,0,0,-1,8.115402,156.5824)" stroke-width=".398" stroke-linecap="butt" stroke-miterlimit="10" stroke-linejoin="miter" fill="none" stroke="#000000" d="M0 0H396"/>
<text xml:space="preserve" transform="matrix(1 0 -0 1 -99.8846 510.3534)" font-size="11.9552" font-family="NimbusRomNo9L"><tspan y="-320.947" x="108.299 126.82956">5E</tspan></text>
<text xml:space="preserve" transform="matrix(1 0 -0 1 -99.8846 510.3534)" font-size="9.5641" font-family="NimbusRomNo9L"><tspan y="-320.947" x="134.7272 142.22547 148.13608 154.56316 161.53539 165.3132 174.40866 180.8453 188.334 194.77065">XPERIMENTS</tspan></text>
<text xml:space="preserve" transform="matrix(.98994949 0 -0 1.0101526 -99.8846 510.3534)" font-size="9.862471" font-family="NimbusRomNo9L"><tspan y="-293.80018" x="109.09648 116.217189 121.14842 126.89825 131.82947 136.7607 141.13965 146.34705 151.27828 157.02809 161.2591 166.19033 171.12155 175.50049 178.78469 181.52646 189.19947 193.57842 198.50965 201.25142 207.55355 210.29532 216.59745 219.33922 226.73607 231.6673 236.59853 241.52976 245.90869 249.19289 253.02939 255.77117 260.15013 265.08137 272.4782 275.21998 280.1512 287.0056 291.93687 296.3158 301.24708 305.626 311.10957 313.85133">Ourgoalofexperimentsistounderstandthebene&#xfb01;ts</tspan></text>
<text xml:space="preserve" transform="matrix(1 0 -0 1 -99.8846 510.3534)" font-size="9.9626" font-family="NimbusRomNo9L"><tspan y="-296.783" x="316.932 325.78877 332.98176">MQE</tspan></text>
<text xml:space="preserve" transform="matrix(.98994949 0 -0 1.0101526 -99.8846 510.3534)" font-size="9.862471" font-family="NimbusRomNo9L"><tspan y="-293.80018" x="344.9782 349.90946 353.19364 355.9354 360.86665 365.79789 372.1 379.2207 384.15196 388.53089 395.92774 398.6695 403.87687 408.2558 413.18705 420.86006 425.239 431.5411 434.28288 441.68959 446.0685 450.99977 455.37873 460.30998 463.05174 465.7935 470.72474 478.12159 484.96614 489.89738 494.8286 497.57038 500.31214 504.53327">bringswhenitcomestoenablingapolicy</tspan></text>
<text xml:space="preserve" transform="matrix(1.0099504 0 -0 .99014768 -99.8846 510.3534)" font-size="10.061731" font-family="NimbusRomNo9L"><tspan y="-288.66807" x="106.93594 109.73311 117.61144 122.64231 127.10972 132.1406 136.608 139.95856 144.42597 147.22313 150.0203 154.48769 161.80257 166.26998 171.30083 179.12886 184.15973 189.1906 193.10462 195.90178 198.69895 201.49611 206.52698 211.55785 216.02526 218.82242 221.61959 229.48786 232.83841 237.16495 242.04488 246.51227 250.97968 256.01057 258.8077 266.1226 273.9506 278.98149 281.77864 284.57579 287.37294 292.4038 295.20094 302.5158 305.31297 309.7804 313.69444 318.72529 325.4767 329.39076 333.85816 338.3256 346.20393 349.00108 356.8794 359.67655 363.0271 367.49455 370.2917 375.32258 378.1197 383.15058 391.0289 394.94294 399.41038 404.44123 408.90867 412.25923 416.72666 419.5238 423.9912 426.78837 434.6667 437.46385 442.49473 447.52558 451.993 454.79017 459.821 464.28846 467.639 473.827 478.2944 483.3253 491.2036 494.00077">togeneralizecompositionally(executemultipletasksseenintrainingseparatelytogether)andin</tspan></text>
<text xml:space="preserve" transform="matrix(1.0049878 0 -0 .99503698 -99.8846 510.3534)" font-size="10.012291" font-family="NimbusRomNo9L"><tspan y="-276.23597" x="107.46399 110.24741 114.69286 118.02696 125.81652 132.18434 137.19048 142.9976 148.00376 153.00989 156.34398 159.1274 163.57286 168.57901 176.05818 179.39228 184.39842 188.84389 193.85002 198.29549 201.62958 206.07505 208.85846 211.64188 216.08734 223.00585 227.8618 232.72777 237.17324 242.98036 249.89885 252.68227 257.68843 262.69459 267.70075 272.14619 277.9533 280.73674 285.1822 289.07698 296.55619 303.78504 308.7912 313.23667 320.71586 327.63435 331.52915 334.31257 342.10215 344.88557 347.66899 352.1144 357.92155 362.72749 367.73365 373.0001 376.89488 381.90104 386.9072 390.24128 393.0247 397.47013 403.27726 406.06068 410.50614 414.4009 421.88014 429.00889 433.4543 439.82215 443.71696 448.16239 452.60786 460.08705 462.87046 470.34968 473.1331 476.46717 480.91264 483.69606 488.70219 491.48564 496.49177">termsofhorizon(generalizeoveralongertaskwhenasimilarbutshortertaskwasseenintraining</tspan></text>
<text xml:space="preserve" transform="matrix(1 0 -0 1 -99.8846 510.3534)" font-size="9.9626" font-family="NimbusRomNo9L"><tspan y="-263.906" x="108 111.87545 116.29884 119.06844 122.38599 127.96504 133.25518 140.72711 143.49672 148.47801 152.90142 158.16167 162.58507 167.56636 172.54766 177.52895 184.72194 191.63599 196.05939 199.93485 207.40679 210.17639 215.15769 222.07173 225.38928 230.37058 233.14019 235.90979 240.64202 247.835 250.60462 255.5859 263.05787 266.3754 270.7988 274.67427 279.09767 283.52107 286.8386 291.262 298.73396 303.71525 308.69654 313.11994 316.9954 319.76499 322.53459 327.51588 332.49717 336.37263">set).Tothatend,weaskthefollowingresearchquestions:</tspan></text>
<text xml:space="preserve" transform="matrix(1 0 -0 1 -99.8846 510.3534)" font-size="9.9626" font-family="NimbusRomNo9L"><tspan y="-241.429" x="131.412 136.3933">1.</tspan></text>
<text xml:space="preserve" transform="matrix(1.0069759 0 -0 .99307247 -99.8846 510.3534)" font-size="10.032098" font-family="NimbusRomNo9L"><tspan y="-243.11319" x="142.86838 150.11154 154.8768 164.5979 172.40287 177.41892 181.87317 189.36714 194.3832 199.39923 203.85349">Howmuchdoes</tspan></text>
<text xml:space="preserve" transform="matrix(1 0 -0 1 -99.8846 510.3534)" font-size="9.9626" font-family="NimbusRomNo9L"><tspan y="-241.429" x="211.701 220.55776 227.75075">MQE</tspan></text>
<text xml:space="preserve" transform="matrix(1.0069759 0 -0 .99307247 -99.8846 510.3534)" font-size="10.032098" font-family="NimbusRomNo9L"><tspan y="-243.11319" x="234.6948 237.48372 245.2887 250.30475 253.64545 258.51103 263.3766 270.30876 273.0977 278.1137 285.0459 290.06193 295.07795 298.41865 301.20756 305.6618 310.67787 318.1718 323.18785 327.6421 332.6581 337.11238 340.45304 344.9073 347.69624 350.48515 354.9394 359.39366 362.18257 364.9715 369.98753 377.48149 381.93574 386.95176 389.7407 392.5296 395.31855 398.10746 400.8964 405.35066 411.73106 416.7471 422.5657 427.01994 432.03599 436.49024 441.50627 444.2952 450.66557 455.1198 460.13587 467.94084 472.95686 477.4111 480.75178 485.20603 492.69999 495.4889">improvethehorizongeneralizationabilitiesofagentscomparedto</tspan></text>
<text xml:space="preserve" transform="matrix(1 0 -0 1 -99.8846 510.3534)" font-size="9.9626" font-family="NimbusRomNo9L"><tspan y="-230.471" x="143.865 148.8463 152.16385 154.93346 159.91475 165.72295 172.81632 177.7976 181.11516 186.09645 189.97191">priorworks?</tspan></text>
<text xml:space="preserve" transform="matrix(1 0 -0 1 -99.8846 510.3534)" font-size="9.9626" font-family="NimbusRomNo9L"><tspan y="-214.782" x="131.412 136.3933">2.</tspan></text>
<text xml:space="preserve" transform="matrix(.99899956 0 -0 1.0010015 -99.8846 510.3534)" font-size="9.952632" font-family="NimbusRomNo9L"><tspan y="-214.56713" x="143.54062 152.9359 157.91222 162.33119 167.57622 172.55255 177.52887 181.94785 184.71468 187.48152 190.24835 194.66733 197.43416 199.95218 204.77922 211.68636 214.44322 222.18637 227.16269 230.47693 235.30396 240.131 244.54996 252.2931 256.71208 261.6884 264.45524 270.81495 275.79127 280.7676 285.18656">Whatqualitativeimprovementsdoes</tspan></text>
<text xml:space="preserve" transform="matrix(1 0 -0 1 -99.8846 510.3534)" font-size="9.9626" font-family="NimbusRomNo9L"><tspan y="-214.782" x="291.245 300.10176 307.29475">MQE</tspan></text>
<text xml:space="preserve" transform="matrix(.99899956 0 -0 1.0010015 -99.8846 510.3534)" font-size="9.952632" font-family="NimbusRomNo9L"><tspan y="-214.56713" x="316.1773 321.15367 324.46788 327.2347 332.21104 339.66557 342.4324 349.89689 352.66374 357.08268 360.3969 368.14009 374.48988 379.4662 385.25865 389.6776 394.65394 402.3971 407.3734 412.34974 416.2213 418.98817 421.755 424.52183 429.49815 434.4745 438.89344 444.1385 449.11485 453.53379 458.51014 462.92909 466.24333 470.6623 473.42915 476.19596 480.61494 485.0339 487.80076 490.5676 495.5439 500.52024">bringintermsofcompositionalgeneralization?</tspan></text>
<text xml:space="preserve" transform="matrix(1 0 -0 1 -99.8846 510.3534)" font-size="9.9626" font-family="NimbusRomNo9L"><tspan y="-199.093" x="131.412 136.3933">3.</tspan></text>
<text xml:space="preserve" transform="matrix(1 0 -0 1 -99.8846 510.3534)" font-size="9.9626" font-family="NimbusRomNo9L"><tspan y="-199.093" x="143.397 152.8017 157.78299 162.20639 167.46665 171.89005 175.2076 182.12165 184.89125 189.87255 196.78659 199.5562 207.3071 212.28839 217.26969 220.58724 223.35684 227.78025 232.76154 238.02179 242.95326 247.93456 252.91585 257.33924 260.65678 265.63807 270.06147 273.379 277.8024 285.5533 289.9767 292.7463 297.1697 300.48725 306.85337 309.62297 317.0949 321.5183 326.4996 330.37507 335.35636 338.6739 345.58796 348.35755 353.33885 360.2529 364.12837 369.10966 373.53306 377.95646 382.37986 386.2553 392.62144 397.60273 403.41093 412.26768 419.46067 425.54783">WhataretheimportanthyperparameterstoensurethesuccessofMQE?</tspan></text>
<text xml:space="preserve" transform="matrix(1.0019981 0 -0 .998006 -99.8846 510.3534)" font-size="9.982505" font-family="NimbusRomNo9L" font-weight="bold"><tspan y="-174.94283" x="107.78464 114.44296 119.43422 124.98449 129.41672 133.84896 136.62409 144.93952 149.37175 154.92201 160.7418 164.62502 169.05724 172.38141 177.93167">Experimentsetup</tspan></text>
<text xml:space="preserve" transform="matrix(1.0019981 0 -0 .998006 -99.8846 510.3534)" font-size="9.982505" font-family="NimbusRomNo9L"><tspan y="-174.94283" x="193.42452 200.6319 205.62314 211.44293 215.72542 220.71666 225.70792 230.14014 233.46431 236.23946 244.00585 248.43807 253.42932 256.20445 262.58329 267.57453 271.4577 278.3756 282.80784 287.7991 292.23133 295.00648 297.7816 302.21385 307.20509 312.19633 314.97145 319.9627 324.95396 329.9452 332.7203 337.71159 342.70283 347.69407 351.01823 356.0095 361.00074 364.3249 367.1 371.53227 376.5235 384.01039 389.00163 392.3258 397.31706 402.3083 405.0834 409.51567 417.28208 423.6609 426.436 433.92289 438.91413 441.98875 447.53904 450.31416 455.3054 462.23329 468.8916 477.48655 482.47779 486.91004 491.90129 496.33354 501.32478">Ourexperimentsusechallenging,long-horizonproblemsinof&#xfb02;ineRLbench-</tspan></text>
<text xml:space="preserve" transform="matrix(1.0074722 0 -0 .9925833 -99.8846 510.3534)" font-size="10.037042" font-family="NimbusRomNo9L"><tspan y="-164.8577" x="107.19899 115.00781 119.46426 122.806598 127.82512 134.1886 138.64504 145.00852 152.25525 156.7117 159.502 164.75136 169.20781 175.58133 178.92366 183.38011 187.83655 190.62685 193.96918 201.11556 206.13407 209.47641 212.2667 219.74428 223.64868 228.10514 230.89543 233.68572 236.47602 241.49452 246.51305 250.41745 255.988 264.67005 271.58558 276.6041 280.5085 287.42405 294.6708 301.91755 308.61225 313.0687 318.08723 322.54368 330.0313">marksaswellasreal-worldsettings.WeuseOGBench(</tspan></text>
<text fill="#626572" xml:space="preserve" transform="matrix(1.0074722 0 -0 .9925833 -99.8846 510.3534)" font-size="10.037042" font-family="NimbusRomNo9L"><tspan y="-164.8577" x="333.37367 338.8037 343.26017 346.60249 354.08009 358.53654 363.78593 368.24238 371.03269">Parketal.</tspan></text>
<text xml:space="preserve" transform="matrix(1.0074722 0 -0 .9925833 -99.8846 510.3534)" font-size="10.037042" font-family="NimbusRomNo9L"><tspan y="-164.8577" x="373.54194">,</tspan></text>
<text fill="#626572" xml:space="preserve" transform="matrix(1.0074722 0 -0 .9925833 -99.8846 510.3534)" font-size="10.037042" font-family="NimbusRomNo9L"><tspan y="-164.8577" x="378.51023 383.52876 388.54728 393.56584 398.58436">2025a</tspan></text>
<text xml:space="preserve" transform="matrix(1.0074722 0 -0 .9925833 -99.8846 510.3534)" font-size="10.037042" font-family="NimbusRomNo9L"><tspan y="-164.8577" x="403.04075 408.84214 412.18449 417.203 423.01445 428.03297 433.0515 438.8529 443.1588 448.17735 453.19587 457.6523 460.99467 463.78498 471.59379 476.0502 481.06877 483.85905 490.22254 495.2411">)forourexperimentson</tspan></text>
<text xml:space="preserve" transform="matrix(1 0 -0 1 -99.8846 510.3534)" font-size="9.9626" font-family="NimbusRomNo9L"><tspan y="-152.676" x="108 111.87545 114.64505 122.39595 127.37725 130.14685 134.57025 137.33986 141.76326 149.2352 154.21649 158.6399 163.62119 168.04459 173.02588 180.77678 185.20018 188.51773 193.49903 199.86513 204.28853 209.26982 216.74176 219.51137 224.49266 231.40671 238.05176 241.36931 244.13892 249.12021 254.1015 258.5249 265.7179 270.1413 272.9109 279.82496 283.7004 288.1238 290.8934 295.8747 303.34666">simulatedbenchmarksandtheBridgeDatasetup(</tspan></text>
<text fill="#626572" xml:space="preserve" transform="matrix(1 0 -0 1 -99.8846 510.3534)" font-size="9.9626" font-family="NimbusRomNo9L"><tspan y="-152.676" x="306.6642 315.2719 319.6953 322.4649 327.34657 334.26063 338.68403 343.94429 348.36769 351.13728">Walkeetal.</tspan></text>
<text xml:space="preserve" transform="matrix(1 0 -0 1 -99.8846 510.3534)" font-size="9.9626" font-family="NimbusRomNo9L"><tspan y="-152.676" x="353.6279">,</tspan></text>
<text fill="#626572" xml:space="preserve" transform="matrix(1 0 -0 1 -99.8846 510.3534)" font-size="9.9626" font-family="NimbusRomNo9L"><tspan y="-152.676" x="358.6092 363.59049 368.57179 373.55308">2024</tspan></text>
<text xml:space="preserve" transform="matrix(1 0 -0 1 -99.8846 510.3534)" font-size="9.9626" font-family="NimbusRomNo9L"><tspan y="-152.676" x="378.5344 384.3426 387.66014 392.64143 398.44963 403.4309 408.4122 414.2204 417.53794 421.96134 426.38475 429.15434 432.47187 439.56523 444.5465 447.86405 450.63365 458.1056 462.27995 467.01219 471.43559 474.20518 479.18647 483.60987 486.37947 489.14906 494.13035 499.11164">)forourreal-worldevaluation.</tspan></text>
<text xml:space="preserve" transform="matrix(1 0 -0 1 -99.8846 510.3534)" font-size="9.9626" font-family="NimbusRomNo9L"><tspan y="-126.832" x="108.249 113.72843 116.71721 132.15924">5.1E</tspan></text>
<text xml:space="preserve" transform="matrix(1 0 -0 1 -99.8846 510.3534)" font-size="7.9701" font-family="NimbusRomNo9L"><tspan y="-126.832" x="138.7485 143.91313 150.1617 155.5176 161.44736 166.81124 172.16713 175.31533 181.56389">VALUATING</tspan></text>
<text xml:space="preserve" transform="matrix(1 0 -0 1 -99.8846 510.3534)" font-size="9.9626" font-family="NimbusRomNo9L"><tspan y="-126.832" x="190.2971 199.652 207.34313">MQE</tspan></text>
<text xml:space="preserve" transform="matrix(1 0 -0 1 -99.8846 510.3534)" font-size="7.9701" font-family="NimbusRomNo9L"><tspan y="-126.832" x="216.4191 222.66767">ON</tspan></text>
<text xml:space="preserve" transform="matrix(1 0 -0 1 -99.8846 510.3534)" font-size="9.9626" font-family="NimbusRomNo9L"><tspan y="-126.832" x="231.4108">O</tspan></text>
<text xml:space="preserve" transform="matrix(1 0 -0 1 -99.8846 510.3534)" font-size="7.9701" font-family="NimbusRomNo9L"><tspan y="-126.832" x="239.098 243.52939 247.96077 253.30074 256.4489 262.69749">FFLINE</tspan></text>
<text xml:space="preserve" transform="matrix(1 0 -0 1 -99.8846 510.3534)" font-size="9.9626" font-family="NimbusRomNo9L"><tspan y="-126.832" x="270.546 278.23713 285.3803 292.5235 301.59944">GCRLB</tspan></text>
<text xml:space="preserve" transform="matrix(1 0 -0 1 -99.8846 510.3534)" font-size="7.9701" font-family="NimbusRomNo9L"><tspan y="-126.832" x="308.7466 314.1025 320.35108 326.1613 332.40986 339.9894 346.23799 352.04023">ENCHMARK</tspan></text>
<text xml:space="preserve" transform="matrix(1.0099504 0 -0 .99014768 -99.8846 510.3534)" font-size="10.061731" font-family="NimbusRomNo9L"><tspan y="-107.02848" x="106.47256 115.18601 123.16497 127.380847 132.17023 136.63762 139.43479 144.46566 148.93306 151.73021">Weevaluate</tspan></text>
<text xml:space="preserve" transform="matrix(1 0 -0 1 -99.8846 510.3534)" font-size="9.9626" font-family="NimbusRomNo9L"><tspan y="-105.974" x="161.294 170.15076 177.34375">MQE</tspan></text>
<text xml:space="preserve" transform="matrix(1.0099504 0 -0 .99014768 -99.8846 510.3534)" font-size="10.061731" font-family="NimbusRomNo9L"><tspan y="-107.02848" x="185.13582 187.93299 196.47539 201.50626 206.53713 209.33429 217.8767 220.67386 225.70471 230.17212 235.20298 243.03099 248.06188 250.85904 253.6562 258.68708 267.2295 271.6969 276.72779 285.27018 293.0982 297.5656 302.5965 305.39366 310.42454 315.45539 318.25254 322.71998 325.51713 328.31428 333.34513 341.88755 344.6847 353.2271 360.49168 367.75627 374.4674 378.93486 383.9657 388.43315 396.97554">inbothlocomotionandmanipulationinOGBench(</tspan></text>
<text fill="#626572" xml:space="preserve" transform="matrix(1.0099504 0 -0 .99014768 -99.8846 510.3534)" font-size="10.061731" font-family="NimbusRomNo9L"><tspan y="-107.02848" x="400.3261 405.77958 410.24699 413.59757 422.13996 426.6074 432.91609 437.38349 440.18064">Parketal.</tspan></text>
<text xml:space="preserve" transform="matrix(1.0099504 0 -0 .99014768 -99.8846 510.3534)" font-size="10.061731" font-family="NimbusRomNo9L"><tspan y="-107.02848" x="442.6961">,</tspan></text>
<text fill="#626572" xml:space="preserve" transform="matrix(1.0099504 0 -0 .99014768 -99.8846 510.3534)" font-size="10.061731" font-family="NimbusRomNo9L"><tspan y="-107.02848" x="448.72303 453.7539 458.78477 463.81565 468.84654">2025a</tspan></text>
<text xml:space="preserve" transform="matrix(1.0099504 0 -0 .99014768 -99.8846 510.3534)" font-size="10.061731" font-family="NimbusRomNo9L"><tspan y="-107.02848" x="473.31394 476.66453 485.37797 490.82139 495.85224">).For</tspan></text>
<text xml:space="preserve" transform="matrix(.99899956 0 -0 1.0010015 -99.8846 510.3534)" font-size="9.952632" font-family="NimbusRomNo9L"><tspan y="-94.91994" x="108.10816 110.87499 115.8513 120.27028 125.24659 132.98975 137.96607 140.7329 143.49974 148.47606 155.94055 158.70738 163.12636 166.99794 171.97426 175.84584 180.82216 183.58899 191.05348 195.47246 200.44878 205.4251 208.19194 210.95877 213.7256 218.70194 226.16641 228.93326 236.39774 239.16457 244.1409 251.05797 253.82482 258.80113 262.11537 266.53434 273.44145 277.31303 280.07987 284.49885 289.47517 294.45149 298.87046 302.1847 309.64915 313.52073 316.28758 320.70655 325.12553 332.58998 340.33314 344.7521 349.17109 353.59007 357.46165 362.43794 369.62376 376.53086 380.94984 383.71669 387.58827 395.0527 400.02903 404.448 408.31959 411.08644 416.06275 421.03907 425.45805 432.92253 439.82963 444.2486 448.66758 453.6439 456.41075 461.38706 465.25865 469.13023 473.5492 476.316 480.735 484.04924 487.9208 490.68763 495.1066 499.52558">locomotiontasks,inadditiontothethreestandardsizedmazes,wealsodesigneda&#x201c;colossal&#x201d;-sized</tspan></text>
<text xml:space="preserve" transform="matrix(.9934788 0 -0 1.0065641 -99.8846 510.3534)" font-size="9.897631" font-family="NimbusRomNo9L"><tspan y="-83.50784" x="108.708919 116.40927 120.80382 125.198368 129.59291 135.17516 141.22261 146.17144 148.92298 155.28716 162.98752 167.38207 171.77661 178.67527 181.4268 187.7811 192.72992 197.68863 208.43747 211.18901 215.58356 218.7013 223.65012 228.04467 233.84468 236.59622 241.54505 245.93959 253.39252 256.14408 261.09288 265.4874 270.75294 275.70176 281.50175 284.2533 289.20213 296.11067 300.5052 305.454 308.20558 312.60014 317.54893 320.30049 324.69505 327.99095 331.84114 334.59269 338.9872 343.38179 350.8347 358.53504 362.9296 367.32417 371.71876 378.073 382.46754 387.41636 390.71226 394.00816 398.4027 403.3515 406.10307 408.8546 416.3174 420.5041 425.20549 429.60005 432.3516 435.10316 439.4977 444.44654 447.1981 454.09675 459.04554 466.50834 473.65443 480.8005 487.40223 491.79679 496.74559 501.1401 506.08894">maze.Thismazeis50%largerthanthatofthe&#x201c;giant&#x201d;-sizedmazescurrentlyavailableonOGBench,</tspan></text>
<text xml:space="preserve" transform="matrix(.9909591 0 -0 1.0091233 -99.8846 510.3534)" font-size="9.872529" font-family="NimbusRomNo9L"><tspan y="-72.43615" x="108.98533 113.36874 118.305 125.7489 128.49346 133.75553 137.04308 141.42649 146.36275 151.29901 154.04358 157.33113 161.71454 168.06258 172.446 178.79404 186.47487 190.85828 195.64646 203.09035 207.47376 213.8218 218.75806 223.69432 228.63059 236.08434 239.92475 242.66933 247.05274 251.989 258.337 261.62458 266.56086 272.35606 276.73945 284.18333 288.56675 293.503 297.8864 302.82267 308.08473 310.82929 318.2732 321.01777 324.30534 328.49128 333.2696 337.65299 340.94056 344.78099 351.68186 354.42643 359.3627 362.65028 367.58653 372.52278 377.45906 384.90293 387.6475 392.58378 399.4748 403.85823 408.79447 411.53904 414.2836 417.57118 424.46223 432.14305 436.52647 440.90986 447.81077 451.09834 454.93873 459.32215 466.2132 471.70234 474.4469">anditrequiresasmanyas4000stepsforanagenttotraversethroughtheentiremaze(seeFig</tspan></text>
<text fill="#626572" xml:space="preserve" transform="matrix(.9909591 0 -0 1.0091233 -99.8846 510.3534)" font-size="9.872529" font-family="NimbusRomNo9L"><tspan y="-72.43615" x="481.89057">2</tspan></text>
<text xml:space="preserve" transform="matrix(.9909591 0 -0 1.0091233 -99.8846 510.3534)" font-size="9.872529" font-family="NimbusRomNo9L"><tspan y="-72.43615" x="486.82679 490.11436 495.70225 504.21238">).We</tspan></text>
<text xml:space="preserve" transform="matrix(.995992 0 -0 1.0040242 -99.8846 510.3534)" font-size="9.922669" font-family="NimbusRomNo9L"><tspan y="-61.88895" x="108.43461 112.84027 120.56011 125.52145 128.27996 133.14205 140.59398 145.55532 153.01717 156.87709 159.63559 164.04126 166.79976 171.20542 174.50966 179.47101 183.87667 187.73659 192.14225 199.6041 204.00975 208.56426 213.5256 216.2841 219.58835 224.54969 229.51103 237.23085 241.63652 246.59786 249.35636 255.7168 260.12248 265.0838 272.5357 279.99754 284.95887 287.71736 292.52983 296.9355 299.69398 302.99824 307.95957 312.3652 316.22514 320.6308 328.08274 332.48838 337.0528 342.0141 344.7726 348.07688 353.03819 357.9995 365.71937 370.125 375.08634 377.84483 384.20527 387.5095 391.91517 396.32084 400.72648 408.1784 413.13975 415.89823 420.7107 425.11637 427.87486 431.1791 436.1404 440.54609 444.406 448.81169 456.26359 460.66926 465.23365 470.19499 472.95347 476.25773 481.21907 486.18037 493.9002 498.30589 503.26719">employ13state-basedenvironmentsand5pixel-basedenvironments(eachpixel-basedenvironment</tspan></text>
<text xml:space="preserve" transform="matrix(1 0 -0 1 -99.8846 510.3534)" font-size="9.9626" font-family="NimbusRomNo9L"><tspan y="-32.25" x="303.509">6</tspan></text>
</g>
</g>
</svg>
